<?xml version="1.0" encoding="UTF-8" standalone="no"?>
<svg
   xmlns:dc="http://purl.org/dc/elements/1.1/"
   xmlns:cc="http://creativecommons.org/ns#"
   xmlns:rdf="http://www.w3.org/1999/02/22-rdf-syntax-ns#"
   xmlns:svg="http://www.w3.org/2000/svg"
   xmlns="http://www.w3.org/2000/svg"
   viewBox="0 0 1168 558.71997"
   height="558.71997"
   width="1168"
   xml:space="preserve"
   id="svg2"
   version="1.1"><metadata
     id="metadata8"><rdf:RDF><cc:Work
         rdf:about=""><dc:format>image/svg+xml</dc:format><dc:type
           rdf:resource="http://purl.org/dc/dcmitype/StillImage" /></cc:Work></rdf:RDF></metadata><defs
     id="defs6"><clipPath
       id="clipPath18"
       clipPathUnits="userSpaceOnUse"><path
         style="clip-rule:evenodd"
         id="path16"
         d="M 1.3053e-5,0 H 876.00001 V 419.04 H 1.3053e-5 Z" /></clipPath><clipPath
       id="clipPath26"
       clipPathUnits="userSpaceOnUse"><path
         style="clip-rule:evenodd"
         id="path24"
         d="M 1.3053e-5,2.4414e-4 H 875.06001 V 417.72024 H 1.3053e-5 Z" /></clipPath><clipPath
       id="clipPath36"
       clipPathUnits="userSpaceOnUse"><path
         id="path34"
         d="M 0,0 H 6257.14 V 2992.85 H 0 Z" /></clipPath><clipPath
       id="clipPath84"
       clipPathUnits="userSpaceOnUse"><path
         id="path82"
         d="M 0,0 H 11.99 V 6.5 H 0 Z" /></clipPath><clipPath
       id="clipPath100"
       clipPathUnits="userSpaceOnUse"><path
         id="path98"
         d="M 0,0 H 17.475 V 6.5 H 0 Z" /></clipPath><clipPath
       id="clipPath130"
       clipPathUnits="userSpaceOnUse"><path
         id="path128"
         d="M 0,0 H 33.993 V 11.99 H 0 Z" /></clipPath></defs><g
     transform="matrix(1.3333333,0,0,-1.3333333,0,558.72)"
     id="g10"><g
       id="g12"><g
         clip-path="url(#clipPath18)"
         id="g14" /></g><g
       id="g20"><g
         clip-path="url(#clipPath26)"
         id="g22"><g
           transform="matrix(12.154,0,0,5.8132,0,-0.83289)"
           id="g28"><g
             transform="scale(0.011507,0.024057)"
             id="g30"><g
               clip-path="url(#clipPath36)"
               id="g32"><path
                 id="path38"
                 style="fill:#7f1253;fill-opacity:0.39216003;fill-rule:evenodd;stroke:none"
                 d="m 4542.79,1139.17 c -133.09,-11.64 -253.28,119.51 -268.45,292.94 -15.18,173.43 80.41,323.47 213.5,335.11 133.08,11.64 253.27,-119.51 268.45,-292.94 15.17,-173.43 -80.42,-323.47 -213.5,-335.11 z" /><path
                 id="path40"
                 style="fill:#7f1253;fill-opacity:0.39216003;fill-rule:evenodd;stroke:none"
                 d="m 4593,1150.68 c -126.89,-47.96 -264.54,48.59 -307.44,215.66 -42.91,167.07 25.17,341.39 152.06,389.36 32.68,12.36 67.34,15.39 101.67,8.9 l 1107.78,-212.32 v -0.07 z" /><path
                 id="path42"
                 style="fill:none;stroke:#000000;stroke-width:10;stroke-linecap:round;stroke-linejoin:round;stroke-miterlimit:10;stroke-dasharray:none;stroke-opacity:1"
                 d="m 4593,1150.68 c -126.89,-47.96 -264.54,48.59 -307.44,215.66 -42.91,167.07 25.17,341.39 152.06,389.36 32.68,12.36 67.34,15.39 101.67,8.9 l 1107.78,-212.32 v -0.07 z" /><g
                 id="g44"><path
                   id="path46"
                   style="fill:none;stroke:#000000;stroke-width:5;stroke-linecap:round;stroke-linejoin:round;stroke-miterlimit:10;stroke-dasharray:10, 10;stroke-dashoffset:0;stroke-opacity:1"
                   d="m 4539.29,1764.6 c 133.3,-25.21 230.61,-185.06 217.37,-357.04 -9.42,-122.29 -73.43,-222.77 -163.66,-256.88" /></g><path
                 id="path48"
                 style="fill:#1361a4;fill-opacity:0.39216003;fill-rule:evenodd;stroke:none"
                 d="m 1827.79,755.9 h 46.64 L 3235.36,225.75 h -46.65 z" /><path
                 id="path50"
                 style="fill:#8eaabb;fill-opacity:1;fill-rule:evenodd;stroke:none"
                 d="M 1874.43,755.9 3235.36,225.75 v 1399.92 l -1360.93,530.15 z" /><path
                 id="path52"
                 style="fill:#1361a4;fill-opacity:0.39216003;fill-rule:evenodd;stroke:none"
                 d="m 1827.79,755.9 h 46.648 v 1399.92 h -46.648 z" /><path
                 id="path54"
                 style="fill:#1361a4;fill-opacity:0.39216003;fill-rule:evenodd;stroke:none"
                 d="m 3188.71,225.75 h 46.648 v 1399.92 h -46.648 z" /><path
                 id="path56"
                 style="fill:#1361a4;fill-opacity:0.39216003;fill-rule:evenodd;stroke:none"
                 d="m 1827.79,2155.82 h 46.64 l 1360.93,-530.15 h -46.65 z" /><path
                 id="path58"
                 style="fill:#8eaabb;fill-opacity:1;fill-rule:evenodd;stroke:none"
                 d="M 1827.79,2155.82 3188.71,1625.67 V 225.75 L 1827.79,755.9 Z" /><path
                 id="path60"
                 style="fill:#5d8db2;fill-opacity:1;fill-rule:evenodd;stroke:none"
                 d="m 4484.16,1773.96 c 131.08,23.11 262.1,-98.6 292.65,-271.86 30.55,-173.25 -50.95,-332.44 -182.02,-355.55 -131.07,-23.11 -262.09,98.6 -292.64,271.86 -30.55,173.25 50.94,332.44 182.01,355.55 z" /><path
                 id="path62"
                 style="fill:#8eaabb;fill-opacity:1;fill-rule:evenodd;stroke:none"
                 d="m 4434.27,1765.16 c 131.08,23.11 262.1,-98.6 292.65,-271.85 30.55,-173.26 -50.95,-332.44 -182.02,-355.56 -131.07,-23.11 -262.09,98.61 -292.64,271.86 -30.55,173.25 50.94,332.44 182.01,355.55 z" /><path
                 id="path64"
                 style="fill:#5d8db2;fill-opacity:1;fill-rule:evenodd;stroke:none"
                 d="m 4484.16,1773.96 c 131.08,23.11 262.1,-98.6 292.65,-271.86 30.55,-173.25 -50.95,-332.44 -182.02,-355.55 0,0 0,0 0,0 l -49.89,-8.8 c 131.07,23.12 212.57,182.3 182.02,355.56 -30.55,173.25 -161.57,294.96 -292.65,271.85 0,0 0,0 0,0 z" /><path
                 id="path66"
                 style="fill:#000000;fill-opacity:1;fill-rule:evenodd;stroke:none"
                 d="m 4508.14,1455.86 c 0,-14.5 -11.75,-26.25 -26.25,-26.25 -14.5,0 -26.25,11.75 -26.25,26.25 0,14.49 11.75,26.25 26.25,26.25 14.5,0 26.25,-11.76 26.25,-26.25 z" /><path
                 id="path68"
                 style="fill:none;stroke:#000000;stroke-width:10;stroke-linecap:round;stroke-linejoin:round;stroke-miterlimit:10;stroke-dasharray:none;stroke-opacity:1"
                 d="M -76.96,2689.58 4481.89,1448.3" /><path
                 id="path70"
                 style="fill:none;stroke:#000000;stroke-width:10;stroke-linecap:round;stroke-linejoin:round;stroke-miterlimit:10;stroke-dasharray:none;stroke-opacity:1"
                 d="M -76.96,2466.53 4481.89,1760.31" /><path
                 id="path72"
                 style="fill:none;stroke:#000000;stroke-width:10;stroke-linecap:round;stroke-linejoin:round;stroke-miterlimit:10;stroke-dasharray:none;stroke-opacity:1"
                 d="M -76.96,2916.95 4481.89,1136.28" /><path
                 id="path74"
                 style="fill:none;stroke:#000000;stroke-width:5;stroke-linecap:round;stroke-linejoin:round;stroke-miterlimit:10;stroke-dasharray:none;stroke-opacity:1"
                 d="m 4721.49,1640.84 189.41,145.34 h 257.14" /><g
                 transform="matrix(3.3304,-1.507e-6,-6.028e-6,1.8056,4921.14,1804.27)"
                 id="g76"><g
                   transform="scale(6.0052,11.077)"
                   id="g78"><g
                     clip-path="url(#clipPath84)"
                     id="g80"><path
                       id="path86"
                       style="fill:#000000;fill-opacity:1;fill-rule:evenodd;stroke:none"
                       d="M 1.3727,5.6052 1.4202,5.6743 C 1.9413,5.3202 2.2378,5.0741 2.3098,4.9359 2.3818,4.7977 2.4163,4.6897 2.4163,4.6149 2.4163,4.5213 2.389,4.4364 2.3328,4.3601 2.2781,4.2824 2.2335,4.245 2.2019,4.2464 2.1385,4.245 2.0838,4.3443 2.0363,4.5458 1.9413,4.8207 1.7211,5.1734 1.3727,5.6052 Z M 3.0094,3.97 v 1.3358 c 0,0.2447 -0.0072,0.5513 -0.0245,0.9213 L 3.5549,5.9968 3.3405,5.7895 V 3.97 H 3.7449 C 4.0616,4.4753 4.3222,5.028 4.5266,5.6283 L 5.0261,5.2828 4.8116,5.1676 C 4.4647,4.6897 4.1566,4.291 3.886,3.97 H 5.0261 L 5.3571,4.2925 5.8077,3.8318 H 3.863 V 1.782 c 0,-0.2619 0.1195,-0.3915 0.3555,-0.3915 h 0.9486 c 0.1123,0 0.1828,0.072 0.2145,0.2174 0.0317,0.1454 0.0633,0.4951 0.095,1.0493 h 0.118 c 0,-0.4001 0.0159,-0.6736 0.0475,-0.819 C 5.6738,1.6914 5.7688,1.5733 5.9272,1.4826 5.8163,1.2523 5.6191,1.1285 5.3341,1.1141 H 4.148 c -0.3944,0 -0.5931,0.1843 -0.5931,0.5528 V 3.8318 H 2.6294 C 2.5833,2.971 2.4163,2.3362 2.1313,1.9303 1.8463,1.5229 1.2849,1.1746 0.44716,0.88383 L 0.42269,0.97595 C 1.1827,1.3128 1.6765,1.6957 1.9053,2.1261 2.1356,2.555 2.258,3.1236 2.2738,3.8318 H 1.2777 C 1.0719,3.8304 0.88187,3.8074 0.7077,3.7627 L 0.49466,3.97 Z" /><path
                       id="path88"
                       style="fill:#000000;fill-opacity:1;fill-rule:evenodd;stroke:none"
                       d="M 6.3309,6.204 6.6865,5.9968 H 10.553 L 10.72,6.204 11.1,5.9277 10.91,5.7665 V 1.8281 c 0,-0.2317 0.008,-0.4693 0.023,-0.714 L 10.577,0.95292 V 1.3905 H 6.6865 V 1.045 L 6.3309,0.92989 C 6.3482,1.2207 6.3554,1.5201 6.3554,1.8281 V 5.421 c 0,0.2447 -0.0072,0.5052 -0.0245,0.783 z M 6.6865,5.8586 V 1.5287 H 10.577 V 5.8586 Z M 7.3515,5.5822 C 7.6523,5.4123 7.8265,5.2886 7.874,5.2123 7.9215,5.1345 7.9445,5.0813 7.9445,5.0525 7.9445,4.9891 7.9172,4.9201 7.861,4.8438 7.8063,4.766 7.7617,4.7286 7.7301,4.73 7.684,4.7286 7.6437,4.7905 7.612,4.9143 7.566,5.0971 7.4551,5.3044 7.2795,5.5361 Z m 0.593,-1.497 c 0.0634,0.1209 0.1267,0.2591 0.19,0.4145 H 7.8495 C 7.6451,4.4983 7.4551,4.4753 7.2795,4.4306 l -0.213,0.2073 h 1.1141 c 0.0489,0.167 0.0878,0.3512 0.1195,0.5513 0.0316,0.1987 0.0561,0.3844 0.0705,0.5542 L 8.8687,5.4901 8.6801,5.3749 C 8.6168,5.1273 8.5534,4.8826 8.4901,4.6379 h 0.498 c 0.095,0.167 0.1785,0.3239 0.2491,0.4707 0.0719,0.1454 0.131,0.3109 0.177,0.4966 l 0.38,-0.2994 C 9.6676,5.2886 9.4473,5.0669 9.1306,4.6379 H 9.4387 L 9.6992,4.8913 10.102,4.4997 H 8.4426 C 8.3634,4.314 8.3001,4.1759 8.2526,4.0852 H 9.6992 L 9.9598,4.3385 10.364,3.947 H 9.1537 C 9.4545,3.531 9.8892,3.2848 10.459,3.21 V 3.1409 C 10.269,3.1236 10.143,3.0401 10.079,2.8875 9.5898,3.1466 9.2328,3.5008 9.0112,3.947 H 8.2051 C 8.0784,3.7455 7.9676,3.6001 7.8726,3.5094 l 0.19,-0.0921 H 8.9637 L 9.0831,3.6015 9.4142,3.3482 9.2732,3.233 C 9.2415,2.9091 9.194,2.6903 9.1306,2.5752 9.0673,2.46 8.9406,2.3794 8.7506,2.3348 8.7665,2.4413 8.6484,2.5478 8.3951,2.6572 v 0.0922 c 0.2217,-0.0475 0.3685,-0.0677 0.439,-0.0591 0.072,0.0072 0.1224,0.203 0.154,0.5888 H 8.0626 V 2.3578 c 0,-0.1698 0.095,-0.262 0.285,-0.2763 h 0.9961 c 0.1425,0.0143 0.2332,0.0863 0.2735,0.2173 0.0403,0.1296 0.059,0.3037 0.059,0.5197 h 0.118 C 9.7942,2.6328 9.8029,2.4787 9.8187,2.3564 9.8345,2.2326 9.9051,2.1491 10.032,2.1045 9.9223,1.9188 9.7482,1.8267 9.5092,1.8281 H 8.1345 C 7.8654,1.8267 7.7387,1.9807 7.7545,2.2887 V 3.3712 C 7.5012,3.1236 7.1773,2.9091 6.7815,2.7263 L 6.734,2.7954 C 7.0031,2.9624 7.2363,3.151 7.4335,3.3582 7.6322,3.5655 7.7776,3.7613 7.8726,3.947 H 7.6351 C 7.4307,3.9455 7.2406,3.9225 7.0665,3.8779 L 6.8534,4.0852 Z" /></g></g></g><path
                 id="path90"
                 style="fill:none;stroke:#000000;stroke-width:5;stroke-linecap:round;stroke-linejoin:round;stroke-miterlimit:10;stroke-dasharray:none;stroke-opacity:1"
                 d="M 3232.25,232.52 3447.04,48.232 h 366.78" /><g
                 transform="matrix(4.8542,0,-3.014e-6,1.8056,3457.28,66.317)"
                 id="g92"><g
                   transform="scale(4.1201,11.077)"
                   id="g94"><g
                     clip-path="url(#clipPath100)"
                     id="g96"><path
                       id="path102"
                       style="fill:#000000;fill-opacity:1;fill-rule:evenodd;stroke:none"
                       d="m 1.8247,3.3482 v -0.691 h 1.497 v 0.691 z M 2.4667,5.8816 2.2522,5.7665 C 2.1428,5.5808 2.0162,5.3735 1.8722,5.1446 H 5.0793 L 5.3643,5.421 5.7674,5.0064 H 3.6543 V 4.2925 h 1.0205 l 0.285,0.2763 0.4045,-0.4145 h -1.71 V 3.4864 H 4.7698 L 5.0318,3.7627 5.4349,3.3482 H 3.6543 V 2.6572 H 5.1268 L 5.4349,2.9566 5.8624,2.519 H 1.8247 V 2.3809 L 1.4692,2.2427 C 1.485,2.5939 1.4922,3.377 1.4922,4.5919 1.2072,4.16 0.85164,3.7843 0.42413,3.4633 L 0.37662,3.5555 c 0.44336,0.4591 0.79598,0.927 1.05658,1.4034 0.262,0.475 0.439,0.8824 0.534,1.2221 z M 3.1073,6.3192 C 3.3923,6.1493 3.5823,6.0097 3.6773,5.9032 3.7723,5.7952 3.8198,5.7031 3.8198,5.6283 3.8198,5.5505 3.7924,5.4685 3.7377,5.385 3.683,5.3001 3.6384,5.2583 3.6068,5.2598 3.5751,5.2583 3.5434,5.3116 3.5118,5.421 3.4643,5.5736 3.4081,5.7103 3.3448,5.8341 3.2814,5.9565 3.1864,6.0946 3.0598,6.2501 Z M 1.8247,5.0064 V 4.2925 h 1.497 v 0.7139 z m 0,-0.8521 V 3.4864 h 1.497 V 4.1543 Z M 1.4922,2.1275 C 1.4605,1.6194 1.3698,1.2941 1.2201,1.1487 1.0704,1.0019 0.93945,0.94141 0.82861,0.96444 0.71777,0.98747 0.67027,1.045 0.68611,1.1372 0.70194,1.2293 0.78831,1.3214 0.94665,1.4135 1.105,1.5042 1.2561,1.7417 1.3972,2.1275 Z M 2.3717,2.0815 C 2.5934,1.8958 2.7359,1.7461 2.7992,1.6309 2.8626,1.5157 2.8942,1.4366 2.8942,1.3905 2.8942,1.2984 2.8597,1.2178 2.7877,1.1487 2.7157,1.0796 2.6639,1.045 2.6322,1.045 2.5689,1.045 2.53,1.1372 2.5142,1.3214 2.4825,1.5805 2.412,1.8195 2.2997,2.0354 Z m 1.2351,0.046 C 3.8443,1.9577 3.9983,1.8224 4.0703,1.723 4.1422,1.6223 4.1768,1.5345 4.1768,1.4596 4.1768,1.3675 4.1451,1.2869 4.0818,1.2178 4.0184,1.1487 3.9796,1.1141 3.9623,1.1141 3.899,1.1141 3.8601,1.1976 3.8443,1.3675 3.7968,1.6122 3.7018,1.8497 3.5593,2.0815 Z M 4.8893,2.2196 C 5.2377,1.9577 5.4521,1.7605 5.5313,1.6309 5.6105,1.4999 5.6493,1.4049 5.6493,1.3445 5.6493,1.2667 5.622,1.1904 5.5659,1.1141 5.5112,1.0364 5.4665,0.99899 5.4349,0.99899 5.3715,0.99899 5.3168,1.0983 5.2693,1.2984 5.1902,1.6036 5.039,1.8958 4.8173,2.1736 Z" /><path
                       id="path104"
                       style="fill:#000000;fill-opacity:1;fill-rule:evenodd;stroke:none"
                       d="m 8.8269,2.1736 c 0,-0.3397 0.0087,-0.6766 0.0245,-1.0134 L 8.4469,0.99899 C 8.4642,1.474 8.4714,1.903 8.4714,2.2887 V 3.6245 H 6.6188 C 6.413,3.6231 6.223,3.6001 6.0488,3.5555 L 5.8343,3.7627 H 8.4714 V 5.6974 H 7.1413 C 6.9355,5.6959 6.7455,5.6729 6.5713,5.6283 L 6.3568,5.8355 H 10.229 L 10.561,6.158 11.037,5.6974 H 8.8269 V 3.7627 h 1.7341 l 0.356,0.3455 0.5,-0.4837 H 8.8269 Z M 10.134,5.467 10.632,5.0985 C 10.505,5.0971 10.331,4.9589 10.109,4.684 9.8734,4.4062 9.6201,4.1456 9.3495,3.9009 L 9.2789,3.947 c 0.4117,0.5355 0.6967,1.0421 0.8551,1.52 z M 6.8563,5.3519 C 7.3155,5.028 7.5847,4.8092 7.6639,4.6941 7.743,4.5789 7.7819,4.4753 7.7819,4.3846 7.7819,4.3371 7.7704,4.2795 7.7474,4.2104 7.7243,4.1413 7.6682,4.0751 7.5804,4.0146 7.494,3.9527 7.4105,4.0607 7.3314,4.3385 7.2522,4.5976 7.0694,4.9201 6.7844,5.3058 Z" /><path
                       id="path106"
                       style="fill:#000000;fill-opacity:1;fill-rule:evenodd;stroke:none"
                       d="M 13.62,2.5651 V 1.5517 h 0.997 v 1.0134 z m -0.167,2.211 c 0.126,0.3512 0.214,0.6823 0.262,0.9904 h -1.52 C 11.957,5.765 11.751,5.742 11.577,5.6974 l -0.214,0.2072 h 4.75 l 0.38,0.3455 0.427,-0.4836 H 13.952 L 14.308,5.5822 14.07,5.5131 C 13.88,5.2511 13.722,5.005 13.595,4.7761 h 2.328 L 16.09,5.0064 16.47,4.73 16.303,4.5688 c 0,-1.3833 0.008,-2.5348 0.024,-3.4547 L 15.97,0.95292 V 1.4135 H 12.29 V 1.0911 L 11.933,0.92989 c 0.017,0.53691 0.024,1.22211 0.024,2.05981 0,0.8364 -0.007,1.4928 -0.024,1.9707 L 12.29,4.7761 Z M 12.29,4.6379 V 1.5517 h 1.02 v 3.0862 z m 2.635,0 V 1.5517 h 1.045 v 3.0862 z m -1.305,0 V 3.7627 h 0.997 v 0.8752 z m 0,-1.0134 V 2.7033 h 0.997 v 0.9212 z" /></g></g></g><path
                 id="path108"
                 style="fill:#1361a4;fill-opacity:0.39216003;fill-rule:evenodd;stroke:none"
                 d="m 5646.98,1146.91 h 14.23 l 414.96,-161.64 h -14.23 z" /><path
                 id="path110"
                 style="fill:#8eaabb;fill-opacity:1;fill-rule:evenodd;stroke:none"
                 d="m 5661.21,1146.91 414.96,-161.64 v 426.84 l -414.96,161.65 z" /><path
                 id="path112"
                 style="fill:#1361a4;fill-opacity:0.39216003;fill-rule:evenodd;stroke:none"
                 d="m 5646.98,1146.91 h 14.223 v 426.84 h -14.223 z" /><path
                 id="path114"
                 style="fill:#1361a4;fill-opacity:0.39216003;fill-rule:evenodd;stroke:none"
                 d="m 6061.94,985.27 h 14.223 v 426.84 h -14.223 z" /><path
                 id="path116"
                 style="fill:#1361a4;fill-opacity:0.39216003;fill-rule:evenodd;stroke:none"
                 d="m 5646.98,1573.76 h 14.23 l 414.96,-161.65 h -14.23 z" /><path
                 id="path118"
                 style="fill:#8eaabb;fill-opacity:1;fill-rule:evenodd;stroke:none"
                 d="m 5646.98,1573.76 414.96,-161.65 V 985.27 l -414.96,161.64 z" /><path
                 id="path120"
                 style="fill:none;stroke:#000000;stroke-width:5;stroke-linecap:round;stroke-linejoin:round;stroke-miterlimit:10;stroke-dasharray:none;stroke-opacity:1"
                 d="m 4860.48,1360.34 642.17,-755.71 h 686.26" /><g
                 transform="matrix(9.4426,-7.54e-7,-6.028e-6,3.3306,5507.9,612.16)"
                 id="g122"><g
                   transform="scale(2.1181,6.005)"
                   id="g124"><g
                     clip-path="url(#clipPath130)"
                     id="g126"><path
                       id="path132"
                       style="fill:#000000;fill-opacity:1;fill-rule:evenodd;stroke:none"
                       d="m 10.134,11.854 0.267,-0.328 C 10.2,11.513 9.7663,11.479 9.1013,11.423 8.4363,11.352 7.7065,11.318 6.9097,11.319 v 0.069 c 0.5938,0.033 1.0807,0.07 1.4607,0.111 0.38,0.04 0.7309,0.089 1.0515,0.147 0.3207,0.057 0.5582,0.126 0.7121,0.208 z M 7.1591,11.077 c 0.3563,-0.22 0.5495,-0.372 0.5798,-0.459 0.0302,-0.086 0.0442,-0.141 0.0442,-0.163 0,-0.07 -0.0237,-0.13 -0.0712,-0.182 C 7.6644,10.221 7.6352,10.195 7.6223,10.196 7.5748,10.195 7.5337,10.259 7.4981,10.386 7.4387,10.57 7.3135,10.788 7.1235,11.043 Z m 1.0872,0.104 0.0529,0.034 C 8.6317,11.03 8.813,10.9 8.8433,10.826 8.8735,10.75 8.8875,10.701 8.8875,10.68 8.8875,10.61 8.8638,10.543 8.8163,10.48 8.7688,10.416 8.7332,10.385 8.7094,10.386 8.6738,10.385 8.6381,10.454 8.6025,10.593 8.5431,10.777 8.4244,10.972 8.2463,11.181 Z m 1.5848,0.138 0.3749,-0.242 -0.161,-0.104 C 9.7253,10.535 9.4522,10.218 9.2254,10.023 l -0.0529,0.052 c 0.3088,0.414 0.529,0.828 0.6586,1.244 z M 8.7807,9.747 c 0,-0.991 0.0064,-1.6129 0.0172,-1.8655 L 8.4956,7.7606 C 8.5075,8.4731 8.5129,9.0842 8.5129,9.5916 8.0984,8.8769 7.4571,8.3177 6.5891,7.9161 L 6.5535,7.9852 c 0.76,0.4361 1.3419,1.0234 1.7457,1.7618 H 7.2131 C 7.0587,9.746 6.9162,9.7287 6.7856,9.6952 L 6.6247,9.8507 h 1.8882 c 0,0.149 -0.0054,0.3153 -0.0173,0.5013 L 8.9048,10.144 8.7807,10.006 V 9.8507 H 10.17 l 0.249,0.2423 0.338,-0.346 H 8.9761 C 9.4036,8.8477 9.992,8.3349 10.74,8.2097 V 8.1406 C 10.574,8.1514 10.443,8.0823 10.348,7.9333 9.6832,8.2777 9.1963,8.8823 8.8875,9.747 Z" /><path
                       id="path134"
                       style="fill:#000000;fill-opacity:1;fill-rule:evenodd;stroke:none"
                       d="m 12.5,11.699 0.036,0.052 c 0.368,-0.197 0.57,-0.333 0.606,-0.407 0.035,-0.076 0.053,-0.124 0.053,-0.146 0,-0.058 -0.024,-0.12 -0.072,-0.182 -0.047,-0.064 -0.076,-0.095 -0.088,-0.094 -0.048,-0.001 -0.089,0.05 -0.125,0.155 -0.059,0.16 -0.196,0.367 -0.41,0.622 z m 1.051,-2.5565 c 0,-0.5765 0.006,-0.9911 0.018,-1.2437 L 13.284,7.7951 c 0.012,0.4146 0.017,0.8626 0.017,1.3474 H 12.696 C 12.542,9.1414 12.4,9.1241 12.268,9.0907 l -0.159,0.1554 h 1.192 V 9.9716 H 12.999 C 12.845,9.9705 12.702,9.9532 12.572,9.9198 l -0.161,0.1552 h 0.89 v 0.639 h -0.32 c -0.153,-0.001 -0.296,-0.018 -0.428,-0.051 l -0.159,0.155 h 1.157 c 0.214,0.391 0.356,0.736 0.427,1.036 l 0.375,-0.241 c -0.119,-0.059 -0.238,-0.169 -0.356,-0.33 -0.119,-0.162 -0.231,-0.316 -0.339,-0.465 h 0.517 l 0.214,0.207 0.32,-0.311 h -1.158 v -0.639 h 0.499 l 0.213,0.208 0.321,-0.3114 H 13.551 V 9.2461 h 0.712 l 0.232,0.2246 0.338,-0.3282 z m -1.87,-0.3973 c 0,-0.162 0.006,-0.4502 0.017,-0.8637 L 11.413,7.7779 c 0.013,0.678 0.019,1.3754 0.019,2.0901 C 11.23,9.4059 10.992,9.0259 10.719,8.7279 l -0.054,0.0346 c 0.333,0.5052 0.588,1.1562 0.767,1.9515 h -0.126 c -0.153,-0.001 -0.295,-0.018 -0.427,-0.051 l -0.16,0.155 h 0.713 c 0,0.287 -0.006,0.633 -0.019,1.036 l 0.41,-0.207 -0.142,-0.121 v -0.708 h 0.231 l 0.197,0.19 0.302,-0.294 h -0.73 v -0.466 c 0.226,-0.105 0.38,-0.191 0.463,-0.2602 0.083,-0.0691 0.124,-0.1382 0.124,-0.2062 0,-0.0475 -0.014,-0.1047 -0.044,-0.1738 C 12.195,9.5387 12.168,9.5041 12.144,9.5052 12.109,9.5041 12.066,9.556 12.019,9.6607 11.937,9.8323 11.823,9.9932 11.681,10.144 Z" /><path
                       id="path136"
                       style="fill:#000000;fill-opacity:1;fill-rule:evenodd;stroke:none"
                       d="M 15.418,10.835 V 9.7298 h 0.926 v 1.1052 z m 0,-1.2089 V 8.417 h 0.926 v 1.2091 z m 1.158,1.1059 c 0,-1.3488 0.007,-2.2297 0.018,-2.6432 L 16.344,7.9506 V 8.3133 H 15.418 V 8.0197 L 15.169,7.8815 c 0.013,0.5398 0.018,1.0785 0.018,1.614 0,0.5355 -0.005,1.0675 -0.018,1.5985 l 0.267,-0.155 h 0.178 c 0.119,0.391 0.185,0.69 0.196,0.898 l 0.392,-0.207 c -0.119,-0.058 -0.279,-0.289 -0.481,-0.691 h 0.588 l 0.178,0.173 0.268,-0.259 z m 0.873,1.088 0.392,-0.225 c -0.095,-0.058 -0.243,-0.294 -0.445,-0.708 h 0.962 l 0.195,0.19 0.268,-0.259 -0.161,-0.121 C 18.636,9.3487 18.604,8.5854 18.563,8.4073 18.522,8.2281 18.462,8.1061 18.385,8.037 18.307,7.9679 18.185,7.9042 18.019,7.847 17.96,8.0305 17.764,8.1687 17.431,8.2615 v 0.0864 c 0.297,-0.0583 0.511,-0.0875 0.642,-0.0875 0.13,0 0.21,0.0972 0.24,0.2937 0.031,0.1954 0.057,0.9382 0.08,2.2289 H 17.36 C 17.146,10.449 16.921,10.166 16.683,9.9371 l -0.054,0.0345 c 0.251,0.3674 0.434,0.6954 0.553,0.9834 0.119,0.287 0.208,0.576 0.267,0.865 z M 17.128,10.127 C 17.413,9.9187 17.579,9.7654 17.627,9.6682 17.674,9.57 17.698,9.4987 17.698,9.4534 17.698,9.3713 17.674,9.3023 17.627,9.245 17.579,9.1867 17.544,9.1587 17.52,9.1597 17.472,9.1587 17.437,9.2396 17.413,9.4016 17.366,9.6304 17.259,9.855 17.092,10.075 Z" /><path
                       id="path138"
                       style="fill:#000000;fill-opacity:1;fill-rule:evenodd;stroke:none"
                       d="m 19.655,11.319 0.035,0.052 c 0.392,-0.266 0.615,-0.45 0.669,-0.554 0.054,-0.104 0.08,-0.185 0.08,-0.241 0,-0.07 -0.021,-0.134 -0.063,-0.191 -0.041,-0.058 -0.074,-0.086 -0.098,-0.085 -0.048,-0.001 -0.089,0.073 -0.124,0.224 -0.072,0.207 -0.238,0.471 -0.499,0.795 z m 1.228,-1.226 v 1.001 c 0,0.184 -0.005,0.414 -0.017,0.691 l 0.428,-0.172 -0.161,-0.156 v -1.364 h 0.303 c 0.238,0.378 0.434,0.793 0.587,1.243 l 0.375,-0.259 -0.161,-0.086 c -0.261,-0.359 -0.492,-0.658 -0.694,-0.898 h 0.855 l 0.249,0.241 0.338,-0.3451 h -1.46 V 8.4515 c 0,-0.1964 0.089,-0.2936 0.267,-0.2936 h 0.713 c 0.083,0 0.136,0.054 0.16,0.163 0.023,0.109 0.047,0.3714 0.071,0.787 h 0.09 c 0,-0.3001 0.011,-0.5052 0.035,-0.6143 C 22.885,8.3835 22.956,8.295 23.075,8.227 22.992,8.0542 22.843,7.9614 22.629,7.9506 h -0.891 c -0.295,0 -0.444,0.1382 -0.444,0.4146 V 9.9889 H 20.598 C 20.564,9.3433 20.439,8.8672 20.225,8.5627 20.011,8.2572 19.59,7.9959 18.96,7.7779 L 18.942,7.847 c 0.57,0.2526 0.942,0.5398 1.113,0.8626 0.173,0.3217 0.265,0.7481 0.277,1.2793 H 19.584 C 19.429,9.9878 19.287,9.9705 19.156,9.9371 l -0.161,0.1559 z" /><path
                       id="path140"
                       style="fill:#000000;fill-opacity:1;fill-rule:evenodd;stroke:none"
                       d="m 25.618,10.576 c 0,-0.162 0.012,-0.376 0.036,-0.6389 l 0.836,0.0859 0.232,0.26 0.357,-0.2941 -1.408,-0.1382 c 0.037,-0.3584 0.096,-0.6402 0.178,-0.8464 0.261,0.2289 0.47,0.4707 0.624,0.7255 L 26.794,9.4188 26.633,9.4016 C 26.408,9.1932 26.183,8.9859 25.956,8.7797 26.17,8.4904 26.419,8.2896 26.704,8.1752 L 26.953,9.0043 27.025,8.987 C 27.001,8.7214 26.987,8.5023 26.98,8.3295 26.975,8.1568 27.002,8.0197 27.06,7.9161 27.073,7.8923 27.079,7.875 27.079,7.8642 27.079,7.8178 27.017,7.8038 26.892,7.8211 26.767,7.8383 26.6,7.9074 26.393,8.0283 26.186,8.1492 25.974,8.3414 25.76,8.607 25.547,8.4677 25.331,8.3522 25.111,8.2604 24.89,8.1687 24.614,8.0769 24.281,7.9852 l -0.017,0.069 c 0.511,0.1836 0.967,0.4362 1.371,0.7601 -0.106,0.3098 -0.177,0.6434 -0.214,1.0018 L 24.692,9.7298 24.549,9.6607 24.353,9.7989 25.404,9.9025 C 25.392,10.062 25.38,10.281 25.369,10.559 l -0.518,-0.035 -0.106,-0.069 -0.16,0.138 0.784,0.052 c -0.012,0.402 -0.024,0.806 -0.036,1.209 l 0.409,-0.19 -0.142,-0.121 c 0,-0.242 0.006,-0.536 0.018,-0.88 l 0.765,0.069 0.232,0.259 0.357,-0.311 z m 0.267,0.985 0.018,0.052 c 0.368,-0.093 0.57,-0.172 0.606,-0.235 0.035,-0.063 0.053,-0.117 0.053,-0.163 0,-0.058 -0.012,-0.116 -0.036,-0.174 -0.024,-0.058 -0.048,-0.086 -0.071,-0.085 -0.024,-10e-4 -0.06,0.046 -0.107,0.138 -0.082,0.126 -0.237,0.281 -0.463,0.467 z m -1.96,0.224 0.356,-0.224 C 24.186,11.525 24.086,11.41 23.979,11.215 23.872,11.007 23.676,10.713 23.391,10.334 l 0.731,0.069 c 0.142,0.229 0.256,0.46 0.338,0.691 L 24.78,10.87 C 24.698,10.822 24.556,10.656 24.353,10.369 24.152,10.08 23.891,9.7341 23.569,9.3325 c 0.166,0.0216 0.534,0.0853 1.104,0.19 V 9.4534 C 24.354,9.3713 24.104,9.299 23.926,9.2364 23.748,9.1727 23.57,9.0842 23.391,8.9697 l -0.214,0.3628 c 0.132,0.0334 0.283,0.1565 0.455,0.3703 0.172,0.2127 0.323,0.4232 0.454,0.6312 -0.131,-0.023 -0.268,-0.056 -0.41,-0.096 -0.143,-0.041 -0.273,-0.112 -0.392,-0.215 l -0.196,0.329 c 0.131,0.021 0.282,0.185 0.455,0.491 0.173,0.304 0.3,0.618 0.382,0.942 z M 23.07,8.4861 c 0.333,0.0453 0.6,0.0853 0.802,0.1198 0.202,0.0346 0.528,0.0983 0.979,0.1911 L 24.87,8.7279 C 24.335,8.5768 23.947,8.4591 23.703,8.3727 23.46,8.2864 23.309,8.2151 23.248,8.1579 Z" /><path
                       id="path142"
                       style="fill:#000000;fill-opacity:1;fill-rule:evenodd;stroke:none"
                       d="m 2.1144,1.5347 v 2.3492 c 0,0.3098 -0.0054,0.5743 -0.0183,0.7946 L 2.3811,4.5057 H 3.967 L 4.1808,4.713 4.4831,4.4021 H 2.3455 V 1.4656 H 4.0026 L 4.2337,1.6902 4.5543,1.362 H 2.3455 L 2.1857,1.1892 1.9536,1.4311 Z M 1.9007,4.2639 C 1.4732,3.0073 1.2357,2.3023 1.1882,2.1468 1.1407,1.9914 1.1201,1.81 1.1255,1.6027 1.132,1.3954 1.1407,1.2519 1.1525,1.172 1.1525,1.1255 1.1234,1.1029 1.0629,1.1029 1.0154,1.1029 0.95928,1.1137 0.89451,1.1374 0.82973,1.1601 0.79626,1.2119 0.79626,1.2929 c 0,0.0572 0.01836,0.1425 0.0529,0.2591 0.02375,0.0907 0.03563,0.1835 0.03563,0.2764 0,0.0906 -0.02591,0.1565 -0.07989,0.1975 C 0.752,2.0659 0.63648,2.109 0.45727,2.1565 V 2.2256 C 0.57603,2.2019 0.65916,2.19 0.70666,2.1911 0.86212,2.19 0.97224,2.2418 1.037,2.3455 1.1018,2.4491 1.3663,3.0936 1.8294,4.2812 Z M 0.44,4.0566 C 0.85564,3.8483 1.0629,3.6777 1.0629,3.546 1.0629,3.4132 1.0305,3.3236 0.96576,3.2782 0.90098,3.2318 0.84377,3.2901 0.79626,3.4521 0.73689,3.601 0.60626,3.7846 0.40437,4.0048 Z M 0.88479,4.903 C 1.2173,4.7411 1.3987,4.6191 1.4289,4.5392 1.4591,4.4582 1.4732,4.401 1.4732,4.3675 1.4732,4.3092 1.4527,4.2563 1.4106,4.211 1.3695,4.1646 1.3361,4.1419 1.3123,4.143 1.2778,4.1419 1.2421,4.1991 1.2054,4.3157 1.1471,4.4647 1.0284,4.6428 0.84916,4.8512 Z" /><path
                       id="path144"
                       style="fill:#000000;fill-opacity:1;fill-rule:evenodd;stroke:none"
                       d="M 6.1365,2.3984 5.9583,2.3638 C 5.5308,2.0745 5.1627,1.8672 4.8539,1.742 L 4.8366,1.8111 C 5.0148,1.9136 5.1961,2.04 5.3797,2.19 5.5643,2.339 5.7219,2.4955 5.8515,2.6575 Z M 8.6659,1.5693 C 8.4759,1.5336 8.3637,1.4527 8.328,1.3274 7.8886,1.4645 7.5529,1.6481 7.3219,1.8791 7.0908,2.109 6.903,2.4146 6.7605,2.7957 V 1.5002 c 0,-0.0821 0.0064,-0.2138 0.0172,-0.3973 L 6.5111,0.98195 C 6.523,1.3965 6.5284,2 6.5284,2.7957 6.2908,2.7719 5.9108,2.7428 5.3883,2.7093 V 2.7784 C 5.7921,2.8237 6.0836,2.8604 6.2617,2.8896 6.4398,2.9177 6.645,2.9554 6.876,3.0019 7.1081,3.0472 7.3488,3.1228 7.5971,3.2275 L 7.7753,2.9339 C 7.527,2.9101 7.337,2.8863 7.2053,2.8648 7.0757,2.841 6.957,2.8237 6.849,2.8129 6.9807,2.5236 7.147,2.2818 7.3478,2.0875 7.4665,2.19 7.5831,2.3077 7.6954,2.4405 7.8087,2.5722 7.8951,2.6855 7.9534,2.7784 L 8.2212,2.4847 8.043,2.4502 C 7.7461,2.2418 7.5378,2.0982 7.419,2.0184 7.5507,1.9136 7.7224,1.824 7.9361,1.7495 8.1499,1.674 8.3939,1.6319 8.6659,1.6211 Z M 6.4042,1.8802 6.2261,1.8629 C 6.0598,1.7463 5.8698,1.6308 5.656,1.5164 5.4423,1.4019 5.2048,1.2983 4.9435,1.2065 L 4.9252,1.2756 C 5.1756,1.39 5.398,1.5185 5.5934,1.6632 5.7899,1.8068 5.9767,1.9773 6.1548,2.1738 Z M 7.0099,3.5902 6.564,3.4521 c 0,-0.1512 0.0065,-0.2602 0.0183,-0.3282 L 6.3146,3.0202 c 0.013,0.1253 0.0183,0.2526 0.0183,0.38 C 5.9767,3.3182 5.6863,3.2437 5.4606,3.1746 5.235,3.1055 5.0569,3.0364 4.9252,2.9684 L 4.7654,3.2448 C 4.9316,3.2664 5.0925,3.2901 5.2458,3.3139 V 4.713 C 5.1163,4.7119 4.9856,4.6947 4.8539,4.6612 L 4.6941,4.8167 H 6.6352 L 6.8846,5.0239 7.188,4.713 H 6.564 V 3.5557 L 6.9915,3.6421 Z M 5.4779,4.713 v -0.38 h 0.855 v 0.38 z m 0,-0.4836 V 3.8839 h 0.855 v 0.3455 z m 0,-0.881 0.855,0.1555 V 3.7802 H 5.4779 Z M 8.328,4.4021 C 8.1499,4.1711 8.0009,3.9983 7.8822,3.8839 8.1434,3.7327 8.3075,3.6151 8.3723,3.5287 8.4381,3.4423 8.4619,3.3646 8.4435,3.2955 8.4263,3.2264 8.396,3.1886 8.355,3.1832 8.314,3.1768 8.2514,3.2318 8.1672,3.3484 8.0851,3.4629 7.948,3.5892 7.758,3.7284 7.473,3.4855 7.1286,3.3009 6.7248,3.1757 L 6.7065,3.2275 C 7.0628,3.3992 7.3596,3.601 7.5971,3.8321 7.3726,3.9692 7.1524,4.0955 6.9386,4.2121 L 6.9559,4.2639 C 7.1221,4.2056 7.3715,4.1074 7.704,3.9703 7.8228,4.0955 7.9599,4.2682 8.1143,4.4885 H 7.3834 C 7.2301,4.4874 7.0876,4.4701 6.9559,4.4366 L 6.7961,4.5921 H 8.0959 L 8.2568,4.7476 8.5062,4.5057 Z" /><path
                       id="path146"
                       style="fill:#000000;fill-opacity:1;fill-rule:evenodd;stroke:none"
                       d="M 9.8562,2.6057 V 3.4175 C 9.4287,3.3592 9.1739,3.2955 9.0908,3.2275 L 8.9299,3.5384 C 9.0962,3.5492 9.2689,3.6637 9.447,3.8828 9.6252,4.1009 9.7677,4.3265 9.8746,4.5576 H 9.4114 C 9.257,4.5565 9.1145,4.5392 8.9839,4.5057 L 8.823,4.6612 h 1.8 l 0.231,0.2245 0.339,-0.3281 H 9.9458 L 10.266,4.3675 C 10.124,4.32 9.976,4.2164 9.8206,4.0566 9.6543,3.8828 9.4708,3.7101 9.2689,3.5384 L 10.694,3.573 c -0.107,0.1597 -0.244,0.3271 -0.41,0.5009 l 0.054,0.0518 C 10.836,3.791 11.098,3.5654 11.121,3.451 11.145,3.3355 11.128,3.2491 11.069,3.1919 11.009,3.1336 10.967,3.1055 10.943,3.1066 10.92,3.1055 10.902,3.1282 10.889,3.1757 10.855,3.2556 10.801,3.3592 10.73,3.4866 10.468,3.4629 10.214,3.4391 9.9631,3.4175 L 10.248,3.2793 10.106,3.1584 V 2.6057 h 0.481 l 0.214,0.2072 0.32,-0.3109 H 10.106 V 1.6729 l 1.015,0.19 0.018,-0.0864 C 9.7849,1.4419 9.0551,1.2238 8.9483,1.1201 L 8.7518,1.4656 C 8.9547,1.4872 9.3229,1.539 9.8562,1.6211 V 2.502 H 9.1793 L 8.9655,2.4675 8.823,2.6057 Z M 11.692,4.1084 V 2.502 c 0,-0.1166 0.006,-0.272 0.017,-0.4664 L 11.442,1.932 c 0.012,0.3789 0.017,0.8075 0.017,1.2858 0,0.4772 -0.005,0.8842 -0.017,1.2188 L 11.851,4.2294 Z M 11.566,1.362 v 0.0863 c 0.179,-0.0237 0.346,-0.0345 0.499,-0.0345 0.084,0 0.149,0.0075 0.197,0.0248 0.047,0.0173 0.065,0.1004 0.052,0.2516 v 2.7119 c 0,0.1716 -0.005,0.3671 -0.017,0.5873 L 12.689,4.8167 12.547,4.6957 V 1.5347 C 12.558,1.2465 12.428,1.0618 12.155,0.98195 12.131,1.1547 11.935,1.281 11.566,1.362 Z" /><path
                       id="path148"
                       style="fill:#000000;fill-opacity:1;fill-rule:evenodd;stroke:none"
                       d="m 12.811,3.2448 h 3.313 l 0.356,0.2763 0.392,-0.38 h -3.42 C 13.262,3.1401 13.102,3.1228 12.97,3.0893 Z" /><path
                       id="path150"
                       style="fill:#000000;fill-opacity:1;fill-rule:evenodd;stroke:none"
                       d="M 18.792,0.96468 C 18.805,1.4246 18.81,1.7463 18.81,1.932 v 1.14 c 0,0.2062 -0.005,0.4535 -0.018,0.7428 L 19.22,3.5902 19.077,3.4866 V 1.7593 c 0,-0.1965 0.006,-0.4038 0.018,-0.6219 z M 19.184,4.8512 19.024,4.7476 C 19.345,4.2747 19.68,3.9195 20.03,3.6842 20.381,3.4477 20.717,3.3074 21.036,3.262 V 3.193 C 20.846,3.18 20.71,3.1055 20.627,2.9684 20.271,3.1519 19.969,3.37 19.719,3.6237 19.47,3.8763 19.221,4.2164 18.97,4.6439 18.698,4.1819 18.407,3.8137 18.098,3.5373 17.789,3.261 17.38,3.0191 16.868,2.8129 L 16.851,2.882 c 0.511,0.2408 0.935,0.5744 1.274,1.0008 0.339,0.4254 0.567,0.8173 0.685,1.1757 z" /><path
                       id="path152"
                       style="fill:#000000;fill-opacity:1;fill-rule:evenodd;stroke:none"
                       d="M 21.906,3.6939 V 1.1201 L 21.639,0.98195 C 21.651,1.2119 21.657,1.4138 21.657,1.5865 V 3.6248 C 21.456,3.3355 21.242,3.0656 21.015,2.8129 l -0.052,0.0519 c 0.273,0.3789 0.498,0.7729 0.676,1.1821 0.179,0.4081 0.297,0.7341 0.357,0.977 L 22.369,4.8167 22.227,4.7476 C 22.026,4.3092 21.895,4.0383 21.835,3.9357 l 0.196,-0.1209 z m 0.926,0.2764 v -0.501 h 0.589 c 0.035,0.149 0.059,0.3153 0.071,0.501 z m 0.909,0 C 23.729,3.8191 23.699,3.6529 23.652,3.4693 h 0.802 v 0.501 z M 23.634,4.0739 23.937,4.523 H 23.082 C 22.915,4.3492 22.791,4.2164 22.708,4.1257 L 22.832,4.0739 Z M 24.026,2.6575 C 23.92,2.6219 23.848,2.5927 23.813,2.5711 23.931,2.3627 24.003,2.1317 24.026,1.8791 24.05,1.6254 24.015,1.4213 23.92,1.267 23.825,1.1115 23.658,1.01 23.421,0.96468 c 0,0.14902 -0.155,0.26452 -0.463,0.34542 v 0.0691 c 0.166,-0.0237 0.315,-0.0345 0.444,-0.0345 0.095,0 0.176,0.0108 0.241,0.0345 0.066,0.0227 0.105,0.1134 0.117,0.2753 0.012,0.1609 0.005,0.311 -0.019,0.4502 -0.522,-0.462 -1.104,-0.7773 -1.745,-0.95 l -0.019,0.0518 c 0.322,0.1382 0.636,0.3099 0.945,0.5171 0.309,0.2073 0.558,0.42 0.748,0.6402 C 23.634,2.4664 23.604,2.5409 23.581,2.5884 23.319,2.3574 23.056,2.1814 22.788,2.0605 22.521,1.9395 22.323,1.8618 22.191,1.8284 l -0.036,0.0518 c 0.238,0.1144 0.455,0.2288 0.651,0.3444 0.197,0.1144 0.419,0.3055 0.668,0.5711 -0.048,0.0799 -0.083,0.1425 -0.107,0.19 C 23.01,2.6963 22.642,2.4955 22.262,2.3811 l -0.035,0.0518 c 0.237,0.1145 0.461,0.2462 0.668,0.3962 0.208,0.149 0.371,0.3282 0.49,0.5366 H 22.832 V 3.262 L 22.583,3.193 c 0.013,0.1943 0.018,0.4653 0.018,0.8118 C 22.459,3.8655 22.323,3.75 22.191,3.6593 l -0.053,0.0346 c 0.261,0.2872 0.463,0.5365 0.606,0.7503 0.142,0.2127 0.249,0.4178 0.32,0.6143 L 23.421,4.8512 C 23.338,4.8275 23.248,4.7519 23.153,4.6266 h 0.802 l 0.178,0.1555 0.25,-0.2591 C 24.264,4.4993 24.145,4.4377 24.026,4.3406 23.908,4.2423 23.813,4.1538 23.741,4.0739 h 0.695 l 0.125,0.1727 0.266,-0.2072 -0.124,-0.1037 c 0,-0.3001 0.007,-0.5139 0.018,-0.6391 L 24.454,3.2102 V 3.3657 H 23.616 C 23.569,3.2728 23.504,3.1692 23.421,3.0548 c 0.118,-0.1166 0.232,-0.2483 0.338,-0.3973 0.298,0.1598 0.523,0.3271 0.677,0.5009 L 24.649,2.8648 C 24.52,2.841 24.335,2.7827 24.098,2.692 c 0.071,-0.2202 0.205,-0.4534 0.4,-0.7006 0.197,-0.2483 0.413,-0.4178 0.65,-0.5085 V 1.4138 c -0.19,0 -0.321,-0.0518 -0.392,-0.1555 -0.343,0.3325 -0.587,0.7989 -0.73,1.3992 z" /><path
                       id="path154"
                       style="fill:#000000;fill-opacity:1;fill-rule:evenodd;stroke:none"
                       d="m 26.338,2.2947 1.764,0.1209 C 27.996,2.5409 27.87,2.6618 27.728,2.7784 l 0.035,0.0518 C 28.038,2.7028 28.239,2.5927 28.37,2.5009 28.501,2.4081 28.563,2.3163 28.557,2.2246 28.55,2.1317 28.533,2.0691 28.503,2.0346 28.474,2 28.453,1.9827 28.44,1.9838 28.406,1.9827 28.376,2.0119 28.352,2.0702 28.292,2.1609 28.233,2.2472 28.174,2.3293 L 27.3,2.2256 V 1.3792 C 27.313,1.172 27.176,1.0338 26.891,0.96468 26.879,1.1374 26.695,1.2583 26.338,1.3274 V 1.3965 C 26.66,1.3728 26.859,1.362 26.935,1.362 c 0.078,0 0.116,0.0399 0.116,0.1209 V 2.2084 C 26.636,2.1501 26.366,2.1036 26.241,2.0691 26.116,2.0346 26.006,1.9946 25.911,1.9493 l -0.178,0.3282 c 0.131,0.0216 0.315,0.0788 0.552,0.1716 0.238,0.0918 0.57,0.2591 0.998,0.502 C 26.998,2.9274 26.752,2.8982 26.543,2.8637 26.336,2.8291 26.167,2.7773 26.036,2.7093 l -0.178,0.3109 c 0.131,0.0216 0.27,0.0767 0.419,0.163 0.149,0.0864 0.288,0.1933 0.418,0.3207 h -0.98 C 25.561,3.5028 25.419,3.4855 25.288,3.4521 l -0.161,0.1554 h 1.924 v 0.38 H 26.41 C 26.256,3.9865 26.114,3.9692 25.982,3.9357 l -0.16,0.1555 h 1.229 v 0.38 H 26.089 C 25.936,4.4701 25.793,4.4528 25.661,4.4194 l -0.159,0.1554 h 1.549 c 0,0.1944 -0.006,0.3498 -0.017,0.4664 L 27.461,4.8857 27.3,4.7821 V 4.5748 h 1.069 l 0.232,0.2073 0.321,-0.3109 H 27.3 v -0.38 h 0.748 l 0.25,0.19 0.285,-0.2937 H 27.3 v -0.38 h 1.372 l 0.267,0.2073 0.303,-0.3109 H 26.837 L 27.051,3.383 C 26.956,3.3592 26.825,3.3074 26.659,3.2275 26.482,3.1455 26.304,3.0656 26.125,2.9857 l 1.247,0.0518 c 0.131,0.1026 0.25,0.2181 0.356,0.3455 L 28.031,3.1411 C 27.924,3.1174 27.752,3.0364 27.514,2.8993 27.266,2.7482 26.874,2.5474 26.338,2.2947 Z m 0,-0.2763 0.304,-0.2764 C 26.523,1.729 26.321,1.6319 26.036,1.4483 25.751,1.2637 25.49,1.1309 25.252,1.051 l -0.035,0.0519 c 0.261,0.1382 0.484,0.2871 0.668,0.448 0.183,0.1609 0.335,0.3163 0.453,0.4675 z M 27.692,1.9665 C 28.143,1.8046 28.45,1.6826 28.61,1.6027 28.771,1.5217 28.857,1.4386 28.869,1.3533 28.881,1.267 28.872,1.1979 28.842,1.1461 28.812,1.0942 28.791,1.0683 28.779,1.0683 c -0.059,0 -0.13,0.0572 -0.213,0.1728 -0.143,0.1727 -0.445,0.3962 -0.909,0.6736 z" /><path
                       id="path156"
                       style="fill:#000000;fill-opacity:1;fill-rule:evenodd;stroke:none"
                       d="M 30.948,4.9894 31.429,4.7821 31.233,4.6439 V 3.4866 h 1.051 L 32.551,3.7457 32.925,3.383 H 31.233 V 1.4311 h 1.46 l 0.285,0.2763 0.392,-0.38 h -3.562 c -0.154,0 -0.296,-0.0173 -0.428,-0.0518 l -0.16,0.1555 h 1.746 V 4.333 c 0,0.2062 -0.005,0.4254 -0.018,0.6564 z" /></g></g></g></g></g></g></g></g></g></svg>