<?xml version="1.0" encoding="UTF-8" standalone="no"?>
<svg
   xmlns:dc="http://purl.org/dc/elements/1.1/"
   xmlns:cc="http://creativecommons.org/ns#"
   xmlns:rdf="http://www.w3.org/1999/02/22-rdf-syntax-ns#"
   xmlns:svg="http://www.w3.org/2000/svg"
   xmlns="http://www.w3.org/2000/svg"
   viewBox="0 0 946.71997 622.71997"
   height="622.71997"
   width="946.71997"
   xml:space="preserve"
   id="svg2"
   version="1.1"><metadata
     id="metadata8"><rdf:RDF><cc:Work
         rdf:about=""><dc:format>image/svg+xml</dc:format><dc:type
           rdf:resource="http://purl.org/dc/dcmitype/StillImage" /></cc:Work></rdf:RDF></metadata><defs
     id="defs6"><clipPath
       id="clipPath18"
       clipPathUnits="userSpaceOnUse"><path
         style="clip-rule:evenodd"
         id="path16"
         d="M 1.058e-5,0 H 710.04001 V 467.04 H 1.058e-5 Z" /></clipPath><clipPath
       id="clipPath26"
       clipPathUnits="userSpaceOnUse"><path
         style="clip-rule:evenodd"
         id="path24"
         d="M 1.058e-5,2.7466e-4 H 709.24001 V 466.29027 H 1.058e-5 Z" /></clipPath><clipPath
       id="clipPath36"
       clipPathUnits="userSpaceOnUse"><path
         id="path34"
         d="M 0,0 H 3551.4 V 2337.44 H 0 Z" /></clipPath><clipPath
       id="clipPath82"
       clipPathUnits="userSpaceOnUse"><path
         id="path80"
         d="M 0,0 H 28.477 V 8 H 0 Z" /></clipPath><clipPath
       id="clipPath104"
       clipPathUnits="userSpaceOnUse"><path
         id="path102"
         d="M 0,0 H 28.508 V 8 H 0 Z" /></clipPath><clipPath
       id="clipPath122"
       clipPathUnits="userSpaceOnUse"><path
         id="path120"
         d="M 0,0 H 28.508 V 8 H 0 Z" /></clipPath></defs><g
     transform="matrix(1.3333333,0,0,-1.3333333,0,622.72)"
     id="g10"><g
       id="g12"><g
         clip-path="url(#clipPath18)"
         id="g14" /></g><g
       id="g20"><g
         clip-path="url(#clipPath26)"
         id="g22"><g
           transform="matrix(9.8505,0,0,6.4792,0,-0.20773)"
           id="g28"><g
             transform="scale(0.020274,0.030803)"
             id="g30"><g
               clip-path="url(#clipPath36)"
               id="g32"><g
                 id="g38"><path
                   id="path40"
                   style="fill:none;stroke:#000000;stroke-width:8.75;stroke-linecap:round;stroke-linejoin:round;stroke-miterlimit:10;stroke-dasharray:35, 17.5;stroke-dashoffset:0;stroke-opacity:1"
                   d="M 2896.09,2247.45 H 1168.71" /></g><g
                 id="g42"><path
                   id="path44"
                   style="fill:none;stroke:#000000;stroke-width:8.75;stroke-linecap:round;stroke-linejoin:round;stroke-miterlimit:10;stroke-dasharray:35, 17.5;stroke-dashoffset:0;stroke-opacity:1"
                   d="M 2896.09,1939.24 H 1168.71" /></g><g
                 id="g46"><path
                   id="path48"
                   style="fill:none;stroke:#000000;stroke-width:8.75;stroke-linecap:round;stroke-linejoin:round;stroke-miterlimit:10;stroke-dasharray:35, 17.5;stroke-dashoffset:0;stroke-opacity:1"
                   d="M 2896.09,1631.03 H 1168.71" /></g><g
                 id="g50"><path
                   id="path52"
                   style="fill:none;stroke:#000000;stroke-width:8.75;stroke-linecap:round;stroke-linejoin:round;stroke-miterlimit:10;stroke-dasharray:35, 17.5;stroke-dashoffset:0;stroke-opacity:1"
                   d="M 2896.09,1322.83 H 1168.71" /></g><g
                 id="g54"><path
                   id="path56"
                   style="fill:none;stroke:#000000;stroke-width:8.75;stroke-linecap:round;stroke-linejoin:round;stroke-miterlimit:10;stroke-dasharray:35, 17.5;stroke-dashoffset:0;stroke-opacity:1"
                   d="M 2896.09,1014.62 H 1168.71" /></g><g
                 id="g58"><path
                   id="path60"
                   style="fill:none;stroke:#000000;stroke-width:8.75;stroke-linecap:round;stroke-linejoin:round;stroke-miterlimit:10;stroke-dasharray:35, 17.5;stroke-dashoffset:0;stroke-opacity:1"
                   d="M 2896.09,706.42 H 1168.71" /></g><g
                 id="g62"><path
                   id="path64"
                   style="fill:none;stroke:#000000;stroke-width:8.75;stroke-linecap:round;stroke-linejoin:round;stroke-miterlimit:10;stroke-dasharray:35, 17.5;stroke-dashoffset:0;stroke-opacity:1"
                   d="M 2896.09,398.21 H 1168.71" /></g><g
                 id="g66"><path
                   id="path68"
                   style="fill:none;stroke:#000000;stroke-width:8.75;stroke-linecap:round;stroke-linejoin:round;stroke-miterlimit:10;stroke-dasharray:35, 17.5;stroke-dashoffset:0;stroke-opacity:1"
                   d="M 2896.09,90.004 H 1168.71" /></g><path
                 id="path70"
                 style="fill:none;stroke:#000000;stroke-width:5;stroke-linecap:round;stroke-linejoin:round;stroke-miterlimit:10;stroke-dasharray:none;stroke-opacity:1"
                 d="M 2896.09,2247.45 V 90.004" /><path
                 id="path72"
                 style="fill:#8eaabb;fill-opacity:1;fill-rule:evenodd;stroke:none"
                 d="M 2247.44,1168.73 C 2247.44,572.96 1764.48,90.001 1168.72,90.001 572.95,90.001 89.991,572.96 89.991,1168.73 c 0,595.76 482.959,1078.72 1078.729,1078.72 595.76,0 1078.72,-482.96 1078.72,-1078.72 z" /><g
                 transform="matrix(7.9103,-3.014e-6,-3.014e-6,2.2222,2280.93,2026.47)"
                 id="g74"><g
                   transform="scale(2.5283,9)"
                   id="g76"><g
                     clip-path="url(#clipPath82)"
                     id="g78"><path
                       id="path84"
                       style="fill:#000000;fill-opacity:1;fill-rule:evenodd;stroke:none"
                       d="m 1.9485,6.1042 v -0.95 h 1.6014 v 0.95 z m 2.017,0 v -0.95 h 1.6896 v 0.95 z M 1.9485,4.9815 V 4.0026 h 1.6014 v 0.9789 z m 2.017,0 V 4.0026 H 5.6551 V 4.9815 Z M 2.2166,7.6588 2.2759,7.7452 C 2.553,7.5905 2.7941,7.4303 3.0011,7.2684 3.2098,7.1047 3.3088,6.9553 3.298,6.8222 3.289,6.6872 3.2494,6.5865 3.181,6.5199 3.1126,6.4515 3.0676,6.4191 3.0461,6.4209 2.9669,6.4191 2.8877,6.5343 2.8085,6.7664 2.6898,7.0525 2.4937,7.3494 2.2166,7.6588 Z M 3.9655,2.7647 c 0,-0.7881 0.0108,-1.3063 0.0288,-1.5546 L 3.5211,1.0086 C 3.5409,1.6797 3.5499,2.2645 3.5499,2.7647 H 1.029 L 0.64396,2.7071 0.40645,2.9374 H 3.5499 V 3.8299 H 1.9485 V 3.4844 L 1.504,3.3117 c 0.0216,0.5362 0.0306,1.0724 0.0306,1.6104 0,0.5362 -0.009,1.0742 -0.0306,1.614 L 1.9791,6.277 H 4.2318 C 4.3721,6.4857 4.5161,6.7394 4.6636,7.0381 4.8112,7.335 4.9155,7.5905 4.9731,7.8028 L 5.5669,7.371 C 5.4086,7.3116 5.2358,7.1856 5.0487,6.9949 4.8616,6.8024 4.6474,6.5631 4.4099,6.277 H 5.5957 L 5.8332,6.5361 6.3082,6.1906 6.0419,5.9891 c 0,-1.1732 0.0108,-1.9397 0.0288,-2.3031 L 5.6551,3.5132 V 3.8299 H 3.9655 V 2.9374 h 2.224 l 0.475,0.4607 0.6513,-0.6334 z" /><path
                       id="path86"
                       style="fill:#000000;fill-opacity:1;fill-rule:evenodd;stroke:none"
                       d="m 10.433,0.97979 c 0.02,0.76651 0.029,1.30271 0.029,1.61221 v 1.9001 c 0,0.3436 -0.009,0.7557 -0.029,1.2379 L 11.144,5.3557 10.906,5.183 V 2.3041 c 0,-0.3275 0.011,-0.673 0.031,-1.0364 z M 11.085,7.4573 10.818,7.2846 C 11.353,6.4965 11.91,5.9045 12.493,5.5123 13.076,5.1182 13.636,4.8843 14.169,4.8087 V 4.6936 C 13.854,4.672 13.627,4.5478 13.487,4.3193 12.895,4.6252 12.391,4.9887 11.975,5.4115 11.561,5.8325 11.146,6.3993 10.73,7.1119 10.277,6.3417 9.7926,5.7282 9.278,5.2676 8.7634,4.8069 8.0815,4.4039 7.2304,4.0602 L 7.1998,4.1754 c 0.8511,0.4012 1.5582,0.9572 2.1214,1.6679 0.5632,0.709 0.9428,1.3621 1.1408,1.9595 z" /><path
                       id="path88"
                       style="fill:#000000;fill-opacity:1;fill-rule:evenodd;stroke:none"
                       d="M 15.625,5.5285 V 1.2389 L 15.181,1.0086 c 0.019,0.3832 0.028,0.7197 0.028,1.0076 V 5.4133 C 14.875,4.9311 14.519,4.4813 14.142,4.0602 l -0.089,0.0864 c 0.455,0.6315 0.831,1.2883 1.128,1.9702 0.297,0.6802 0.494,1.2236 0.592,1.6284 L 16.395,7.3997 16.159,7.2846 C 15.823,6.5541 15.605,6.1024 15.506,5.9315 L 15.832,5.73 Z m 1.542,0.4606 V 5.1542 h 0.979 c 0.059,0.2483 0.099,0.5254 0.119,0.8349 z m 1.512,0 C 18.661,5.7372 18.61,5.4601 18.531,5.1542 h 1.335 V 5.9891 Z M 18.5,6.1618 19.006,6.9103 H 17.583 C 17.306,6.6206 17.099,6.3993 16.958,6.2482 L 17.167,6.1618 Z M 19.154,3.8011 C 18.977,3.7417 18.858,3.6932 18.797,3.6572 18.995,3.3099 19.114,2.9248 19.154,2.5038 19.193,2.081 19.134,1.7409 18.975,1.4836 18.817,1.2245 18.542,1.0554 18.146,0.97979 c 0,0.24831 -0.257,0.44081 -0.772,0.57581 v 0.1151 c 0.277,-0.0396 0.525,-0.0576 0.741,-0.0576 0.159,0 0.294,0.018 0.402,0.0576 0.108,0.0378 0.172,0.189 0.192,0.4588 0.02,0.2681 0.009,0.5183 -0.03,0.7504 -0.87,-0.7701 -1.838,-1.2955 -2.906,-1.5834 l -0.029,0.0863 c 0.534,0.2303 1.058,0.5164 1.572,0.8619 0.515,0.3455 0.929,0.6999 1.244,1.067 C 18.502,3.4826 18.452,3.6068 18.412,3.686 17.977,3.3009 17.538,3.0076 17.093,2.8061 16.649,2.6046 16.318,2.475 16.1,2.4192 l -0.059,0.0864 c 0.396,0.1907 0.755,0.3815 1.081,0.574 0.328,0.1907 0.698,0.5092 1.112,0.9518 C 18.155,4.1646 18.096,4.2689 18.056,4.3481 17.464,3.8659 16.85,3.5312 16.217,3.3405 l -0.058,0.0864 c 0.396,0.1907 0.767,0.4102 1.112,0.6603 0.346,0.2483 0.618,0.547 0.816,0.8943 h -0.92 V 4.8087 L 16.751,4.6936 c 0.022,0.3239 0.031,0.7755 0.031,1.3531 C 16.545,5.8145 16.318,5.622 16.1,5.4709 l -0.09,0.0576 c 0.436,0.4786 0.772,0.8942 1.01,1.2505 0.237,0.3544 0.413,0.6963 0.532,1.0238 L 18.146,7.4573 C 18.007,7.4177 17.858,7.2918 17.7,7.0831 h 1.335 l 0.297,0.2591 0.415,-0.4319 C 19.549,6.8707 19.351,6.7682 19.154,6.6062 18.956,6.4425 18.797,6.295 18.679,6.1618 h 1.157 L 20.042,6.4497 20.489,6.1042 20.28,5.9315 c 0,-0.5002 0.011,-0.8565 0.031,-1.0652 L 19.866,4.7224 V 4.9815 H 18.472 C 18.392,4.8267 18.284,4.654 18.146,4.4633 18.344,4.2689 18.531,4.0494 18.709,3.8011 19.204,4.0674 19.58,4.3463 19.836,4.636 L 20.192,4.1466 C 19.976,4.107 19.668,4.0098 19.272,3.8587 19.391,3.4916 19.614,3.103 19.94,2.6909 20.267,2.2771 20.627,1.9946 21.021,1.8435 V 1.7283 c -0.315,0 -0.532,-0.0864 -0.651,-0.2591 -0.572,0.5542 -0.979,1.3315 -1.216,2.3319 z" /><path
                       id="path90"
                       style="fill:#000000;fill-opacity:1;fill-rule:evenodd;stroke:none"
                       d="m 23.01,3.1965 2.935,0.2016 C 25.769,3.6068 25.56,3.8083 25.322,4.0026 l 0.06,0.0864 C 25.837,3.8767 26.174,3.6932 26.391,3.5402 26.609,3.3855 26.713,3.2325 26.703,3.0796 26.692,2.9248 26.663,2.8205 26.613,2.7629 26.564,2.7053 26.53,2.6765 26.508,2.6783 26.451,2.6765 26.4,2.7251 26.361,2.8223 26.262,2.9734 26.163,3.1174 26.064,3.2541 L 24.61,3.0814 V 1.6707 C 24.632,1.3253 24.403,1.0949 23.928,0.97979 23.91,1.2677 23.604,1.4692 23.01,1.5844 v 0.1151 c 0.533,-0.0396 0.864,-0.0576 0.994,-0.0576 0.129,0 0.192,0.0666 0.192,0.2016 V 3.0526 C 23.505,2.9554 23.055,2.8781 22.847,2.8205 22.64,2.7629 22.456,2.6963 22.298,2.6208 l -0.297,0.547 c 0.218,0.0359 0.524,0.1313 0.919,0.286 0.396,0.153 0.95,0.4319 1.661,0.8367 C 24.106,4.2509 23.696,4.2024 23.35,4.1448 23.005,4.0872 22.724,4.0008 22.505,3.8875 L 22.21,4.4057 c 0.217,0.036 0.45,0.1277 0.696,0.2717 0.248,0.1439 0.48,0.3221 0.696,0.5344 h -1.63 C 21.715,5.21 21.477,5.1812 21.26,5.1254 l -0.267,0.2591 h 3.203 V 6.0179 H 23.127 C 22.872,6.0161 22.634,5.9873 22.417,5.9315 L 22.15,6.1906 h 2.046 V 6.824 H 22.595 C 22.339,6.8222 22.102,6.7934 21.882,6.7376 l -0.266,0.2591 h 2.58 c 0,0.3239 -0.009,0.583 -0.03,0.7773 L 24.878,7.5149 24.61,7.3422 V 6.9967 h 1.779 L 26.775,7.3422 27.309,6.824 H 24.61 V 6.1906 h 1.247 l 0.414,0.3167 0.475,-0.4894 H 24.61 V 5.3845 h 2.283 L 27.34,5.73 27.843,5.2118 H 23.84 L 24.196,5.0103 C 24.038,4.9707 23.82,4.8843 23.543,4.7512 23.248,4.6144 22.951,4.4813 22.654,4.3481 l 2.075,0.0864 c 0.219,0.1709 0.417,0.3634 0.593,0.5758 L 25.826,4.6072 C 25.65,4.5676 25.362,4.4327 24.966,4.2042 24.552,3.9523 23.899,3.6176 23.01,3.1965 Z m 0,-0.4606 0.504,-0.4606 C 23.316,2.2537 22.98,2.0918 22.505,1.7859 22.032,1.4782 21.596,1.2569 21.2,1.1237 l -0.059,0.0864 c 0.435,0.2303 0.808,0.4786 1.114,0.7467 0.306,0.2681 0.557,0.5272 0.755,0.7791 z m 2.253,-0.0863 c 0.752,-0.2699 1.261,-0.4733 1.528,-0.6064 0.266,-0.135 0.41,-0.2735 0.43,-0.4157 0.02,-0.1439 0.005,-0.2591 -0.045,-0.3454 -0.049,-0.0864 -0.083,-0.1296 -0.105,-0.1296 -0.097,0 -0.215,0.0954 -0.354,0.2879 -0.238,0.2879 -0.741,0.6604 -1.513,1.1228 z" /></g></g></g><path
                 id="path92"
                 style="fill:none;stroke:#000000;stroke-width:17.5;stroke-linecap:round;stroke-linejoin:round;stroke-miterlimit:10;stroke-dasharray:none;stroke-opacity:1"
                 d="m 1168.72,2247.44 c 595.76,0 1078.72,-482.96 1078.72,-1078.72 0,-595.76 -482.96,-1078.719 -1078.72,-1078.719 0,0 0,0 0,0" /><path
                 id="path94"
                 style="fill:#000000;fill-opacity:1;fill-rule:nonzero;stroke:none"
                 d="M 3221.34,2167.52 V 169.92 h -9.99 v 1997.6 z m -4.99,79.93 -30,-100 25,20 h 9.99 l 25.01,-20 z m 0,-2157.447 30,99.997 -25.01,-20 h -9.99 l -25,20 z" /><g
                 transform="matrix(-3.014e-6,-7.9188,2.2222,0,3301.2,2262.56)"
                 id="g96"><g
                   transform="scale(2.5256,9)"
                   id="g98"><g
                     clip-path="url(#clipPath104)"
                     id="g100"><path
                       id="path106"
                       style="fill:#000000;fill-opacity:1;fill-rule:evenodd;stroke:none"
                       d="m 1.5201,3.8158 c -0.5164,0 -0.93922,-0.009 -1.2667,-0.0287 L 0.54129,4.4978 0.77161,4.2315 H 1.5201 v 1.7201 l -0.403,0.4157 0.5758,0.592 V 4.2315 c 0.8456,0 1.5942,-0.0594 2.2455,-0.1781 V 4.8541 C 3.1539,5.2499 2.5583,5.4784 2.1535,5.536 L 2.5565,6.1891 2.7005,5.921 C 3.2978,5.5072 3.7099,5.2103 3.9384,5.0322 V 6.3673 L 3.4778,6.8405 4.1111,7.4936 V 4.5284 c 0.655,0.2969 1.1732,0.7017 1.5564,1.2163 0.3851,0.5146 0.6316,1.1264 0.7468,1.8371 H 6.5294 C 6.569,7.2669 6.6932,7.0492 6.9037,6.9305 6.578,6.2395 6.1965,5.6961 5.7539,5.3003 5.3131,4.9044 4.7661,4.5878 4.1111,4.3502 V 4.0246 C 4.8039,3.8464 5.3851,3.4956 5.8547,2.972 6.3243,2.4484 6.7129,1.7124 7.0188,0.76241 L 6.9037,0.73182 C 6.4826,1.7016 6.0526,2.3836 5.61,2.7794 5.1691,3.1753 4.6689,3.4506 4.1111,3.6089 V 1.8006 C 4.1129,1.5433 4.1417,1.3058 4.1975,1.0881 L 3.9384,0.82178 V 3.6377 C 3.2691,3.7565 2.5205,3.8158 1.6929,3.8158 V 2.3638 C 1.6947,2.1083 1.7234,1.8708 1.7792,1.6513 L 1.5201,1.385 Z M 2.3262,1.8888 2.2686,1.9787 c 0.3473,0.5146 0.592,0.8061 0.736,0.8745 0.1439,0.0684 0.2537,0.1026 0.3292,0.1026 0.117,0 0.2178,-0.0378 0.3041,-0.117 C 3.7243,2.7596 3.7675,2.7111 3.7657,2.6895 3.7675,2.6103 3.6433,2.5419 3.3914,2.4826 3.0477,2.3836 2.6933,2.1857 2.3262,1.8888 Z" /><path
                       id="path108"
                       style="fill:#000000;fill-opacity:1;fill-rule:evenodd;stroke:none"
                       d="M 8.1713,3.1339 C 8.4412,2.936 8.7111,2.7291 8.9774,2.5113 L 9.1501,2.6607 V 4.469 L 8.1713,4.9728 Z M 9.3229,2.6895 H 10.302 V 4.2027 H 9.3229 Z m 0,1.927 H 10.302 V 6.3367 H 9.3229 Z m 1.1511,-1.927 c 0.367,0 0.693,-0.009 0.979,-0.0288 v 1.542 h -0.979 z m 0,1.927 h 0.979 v 1.7202 h -0.979 z m 2.707,0.5632 c 0.057,0.475 0.091,0.7881 0.1,0.9357 0.011,0.1475 -0.061,0.2213 -0.216,0.2213 H 11.626 V 4.6165 c 1.058,0 1.681,0.0108 1.871,0.0306 l 0.259,-0.5038 c -0.268,0.0396 -0.977,0.0594 -2.13,0.0594 V 2.6301 C 12.146,2.5725 12.592,2.3944 12.966,2.0975 13.341,1.8006 13.652,1.385 13.9,0.85057 L 13.814,0.79119 C 13.566,1.1475 13.298,1.4407 13.01,1.6675 12.722,1.8942 12.382,2.0579 11.988,2.1569 11.595,2.2558 10.678,2.2954 9.2365,2.2738 9.564,1.959 9.8627,1.5433 10.129,1.0287 L 10.043,0.94054 C 9.6791,1.4551 9.2005,1.9194 8.6049,2.3332 8.0112,2.7489 7.511,3.0062 7.1061,3.1051 L 7.5092,3.7565 7.5955,3.4902 C 7.6927,3.411 7.8276,3.3228 7.9986,3.2239 V 4.9134 L 7.6819,5.2391 8.2001,5.7735 C 8.2397,5.6152 8.3027,5.473 8.389,5.3435 8.4754,5.2157 8.7291,4.9728 9.1501,4.6165 V 6.2179 L 8.8335,6.5436 9.2365,7.0186 9.438,6.7523 h 3.656 c 0.27,0.0198 0.457,-0.0252 0.562,-0.1331 0.106,-0.108 0.198,-0.2627 0.273,-0.4606 C 13.641,6.0398 13.44,5.7141 13.325,5.1797 Z" /><path
                       id="path110"
                       style="fill:#000000;fill-opacity:1;fill-rule:evenodd;stroke:none"
                       d="M 18.277,1.8294 C 17.856,1.851 17.372,1.86 16.825,1.86 c -0.547,0 -1.06,-0.009 -1.542,-0.0306 l 0.259,0.475 V 3.994 H 14.707 V 1.86 C 14.709,1.6027 14.738,1.3652 14.794,1.1475 L 14.535,0.88116 V 6.4267 l -0.403,0.4138 0.575,0.5938 V 4.4096 h 0.835 v 1.5708 l -0.288,0.2969 0.403,0.4444 0.173,-0.2663 c 1.116,0 1.844,0.0108 2.188,0.0306 L 18.22,6.0398 H 17.903 V 4.3502 c 0.655,-0.0791 1.153,-0.2465 1.497,-0.5038 0.309,0.4751 0.497,0.9483 0.563,1.4233 0.067,0.475 0.099,0.8997 0.099,1.2739 0,0.3167 -0.018,0.673 -0.057,1.0688 h 0.086 C 20.188,7.2777 20.341,7.0996 20.552,7.078 20.534,6.2881 20.462,5.626 20.336,5.0916 20.211,4.559 19.978,4.0731 19.63,3.6377 19.9,3.3624 20.12,2.9828 20.292,2.4969 20.465,2.0129 20.6,1.4443 20.695,0.79119 L 20.58,0.76241 C 20.427,1.4551 20.246,2.0183 20.033,2.4538 19.825,2.8892 19.612,3.1951 19.4,3.3714 19.191,3.1339 18.826,2.8586 18.306,2.5419 l -0.058,0.0882 c 0.425,0.3563 0.731,0.6639 0.922,0.9194 -0.171,0.099 -0.353,0.1782 -0.546,0.2376 -0.19,0.0593 -0.431,0.1079 -0.721,0.1475 V 2.2738 h 0.201 z m -2.562,0.4444 h 0.892 V 3.994 h -0.892 z m 0,2.1358 h 0.892 V 6.0398 H 15.715 Z M 16.78,2.2738 h 0.95 V 3.9652 C 17.309,3.985 16.992,3.994 16.78,3.994 Z m 0,2.1358 c 0.27,0 0.587,-0.009 0.95,-0.0306 v 1.6608 h -0.95 z" /><path
                       id="path112"
                       style="fill:#000000;fill-opacity:1;fill-rule:evenodd;stroke:none"
                       d="m 22.856,3.8446 c -1.015,0 -1.697,-0.009 -2.044,-0.0306 l 0.316,0.7125 0.231,-0.2375 h 1.497 v 2.1952 l -0.461,0.4732 0.633,0.6532 V 4.289 h 0.231 c 0.712,0.198 1.426,0.5596 2.146,1.0832 0.72,0.5236 1.204,1.2595 1.452,2.2078 h 0.115 C 26.992,7.2849 27.116,7.0672 27.347,6.9286 26.963,6.2773 26.438,5.7141 25.765,5.2391 25.094,4.7641 24.392,4.4276 23.662,4.2297 24.835,4.0533 25.704,3.6773 26.269,3.1033 26.836,2.5311 27.271,1.7592 27.577,0.78936 L 27.462,0.76057 C 27.174,1.4533 26.812,2.0363 26.37,2.5113 25.929,2.9863 25.42,3.3174 24.844,3.5045 24.268,3.6917 23.663,3.805 23.028,3.8446 V 1.5019 l 0.058,-0.4157 -0.23,-0.23746 z" /></g></g></g><g
                 transform="matrix(-3.014e-6,-7.9188,2.2222,-7.54e-7,3301.2,660.66)"
                 id="g114"><g
                   transform="scale(2.5256,9)"
                   id="g116"><g
                     clip-path="url(#clipPath122)"
                     id="g118"><path
                       id="path124"
                       style="fill:#000000;fill-opacity:1;fill-rule:evenodd;stroke:none"
                       d="m 1.5201,3.8158 c -0.5164,0 -0.93922,-0.009 -1.2667,-0.0287 L 0.54129,4.4978 0.77161,4.2315 H 1.5201 v 1.7201 l -0.403,0.4157 0.5758,0.592 V 4.2315 c 0.8456,0 1.5942,-0.0594 2.2455,-0.1781 V 4.8541 C 3.1539,5.2499 2.5583,5.4784 2.1535,5.536 L 2.5565,6.1891 2.7005,5.921 C 3.2978,5.5072 3.7099,5.2103 3.9384,5.0322 V 6.3673 L 3.4778,6.8405 4.1111,7.4936 V 4.5284 c 0.655,0.2969 1.1732,0.7017 1.5564,1.2163 0.3851,0.5146 0.6316,1.1264 0.7468,1.8371 H 6.5294 C 6.569,7.2669 6.6932,7.0492 6.9037,6.9305 6.578,6.2395 6.1965,5.6961 5.7539,5.3003 5.3131,4.9044 4.7661,4.5878 4.1111,4.3502 V 4.0246 C 4.8039,3.8464 5.3851,3.4956 5.8547,2.972 6.3243,2.4484 6.7129,1.7124 7.0188,0.76241 L 6.9037,0.73182 C 6.4826,1.7016 6.0526,2.3836 5.61,2.7794 5.1691,3.1753 4.6689,3.4506 4.1111,3.6089 V 1.8006 C 4.1129,1.5433 4.1417,1.3058 4.1975,1.0881 L 3.9384,0.82178 V 3.6377 C 3.2691,3.7565 2.5205,3.8158 1.6929,3.8158 V 2.3638 C 1.6947,2.1083 1.7234,1.8708 1.7792,1.6513 L 1.5201,1.385 Z M 2.3262,1.8888 2.2686,1.9787 c 0.3473,0.5146 0.592,0.8061 0.736,0.8745 0.1439,0.0684 0.2537,0.1026 0.3292,0.1026 0.117,0 0.2178,-0.0378 0.3041,-0.117 C 3.7243,2.7596 3.7675,2.7111 3.7657,2.6895 3.7675,2.6103 3.6433,2.5419 3.3914,2.4826 3.0477,2.3836 2.6933,2.1857 2.3262,1.8888 Z" /><path
                       id="path126"
                       style="fill:#000000;fill-opacity:1;fill-rule:evenodd;stroke:none"
                       d="M 8.1713,3.1339 C 8.4412,2.936 8.7111,2.7291 8.9774,2.5113 L 9.1501,2.6607 V 4.469 L 8.1713,4.9728 Z M 9.3229,2.6895 H 10.302 V 4.2027 H 9.3229 Z m 0,1.927 H 10.302 V 6.3367 H 9.3229 Z m 1.1511,-1.927 c 0.367,0 0.693,-0.009 0.979,-0.0288 v 1.542 h -0.979 z m 0,1.927 h 0.979 v 1.7202 h -0.979 z m 2.707,0.5632 c 0.057,0.475 0.091,0.7881 0.1,0.9357 0.011,0.1475 -0.061,0.2213 -0.216,0.2213 H 11.626 V 4.6165 c 1.058,0 1.681,0.0108 1.871,0.0306 l 0.259,-0.5038 c -0.268,0.0396 -0.977,0.0594 -2.13,0.0594 V 2.6301 C 12.146,2.5725 12.592,2.3944 12.966,2.0975 13.341,1.8006 13.652,1.385 13.9,0.85057 L 13.814,0.79119 C 13.566,1.1475 13.298,1.4407 13.01,1.6675 12.722,1.8942 12.382,2.0579 11.988,2.1569 11.595,2.2558 10.678,2.2954 9.2365,2.2738 9.564,1.959 9.8627,1.5433 10.129,1.0287 L 10.043,0.94054 C 9.6791,1.4551 9.2005,1.9194 8.6049,2.3332 8.0112,2.7489 7.511,3.0062 7.1061,3.1051 L 7.5092,3.7565 7.5955,3.4902 C 7.6927,3.411 7.8276,3.3228 7.9986,3.2239 V 4.9134 L 7.6819,5.2391 8.2001,5.7735 C 8.2397,5.6152 8.3027,5.473 8.389,5.3435 8.4754,5.2157 8.7291,4.9728 9.1501,4.6165 V 6.2179 L 8.8335,6.5436 9.2365,7.0186 9.438,6.7523 h 3.656 c 0.27,0.0198 0.457,-0.0252 0.562,-0.1331 0.106,-0.108 0.198,-0.2627 0.273,-0.4606 C 13.641,6.0398 13.44,5.7141 13.325,5.1797 Z" /><path
                       id="path128"
                       style="fill:#000000;fill-opacity:1;fill-rule:evenodd;stroke:none"
                       d="M 18.277,1.8294 C 17.856,1.851 17.372,1.86 16.825,1.86 c -0.547,0 -1.06,-0.009 -1.542,-0.0306 l 0.259,0.475 V 3.994 H 14.707 V 1.86 C 14.709,1.6027 14.738,1.3652 14.794,1.1475 L 14.535,0.88116 V 6.4267 l -0.403,0.4138 0.575,0.5938 V 4.4096 h 0.835 v 1.5708 l -0.288,0.2969 0.403,0.4444 0.173,-0.2663 c 1.116,0 1.844,0.0108 2.188,0.0306 L 18.22,6.0398 H 17.903 V 4.3502 c 0.655,-0.0791 1.153,-0.2465 1.497,-0.5038 0.309,0.4751 0.497,0.9483 0.563,1.4233 0.067,0.475 0.099,0.8997 0.099,1.2739 0,0.3167 -0.018,0.673 -0.057,1.0688 h 0.086 C 20.188,7.2777 20.341,7.0996 20.552,7.078 20.534,6.2881 20.462,5.626 20.336,5.0916 20.211,4.559 19.978,4.0731 19.63,3.6377 19.9,3.3624 20.12,2.9828 20.292,2.4969 20.465,2.0129 20.6,1.4443 20.695,0.79119 L 20.58,0.76241 C 20.427,1.4551 20.246,2.0183 20.033,2.4538 19.825,2.8892 19.612,3.1951 19.4,3.3714 19.191,3.1339 18.826,2.8586 18.306,2.5419 l -0.058,0.0882 c 0.425,0.3563 0.731,0.6639 0.922,0.9194 -0.171,0.099 -0.353,0.1782 -0.546,0.2376 -0.19,0.0593 -0.431,0.1079 -0.721,0.1475 V 2.2738 h 0.201 z m -2.562,0.4444 h 0.892 V 3.994 h -0.892 z m 0,2.1358 h 0.892 V 6.0398 H 15.715 Z M 16.78,2.2738 h 0.95 V 3.9652 C 17.309,3.985 16.992,3.994 16.78,3.994 Z m 0,2.1358 c 0.27,0 0.587,-0.009 0.95,-0.0306 v 1.6608 h -0.95 z" /><path
                       id="path130"
                       style="fill:#000000;fill-opacity:1;fill-rule:evenodd;stroke:none"
                       d="m 22.856,3.8446 c -1.015,0 -1.697,-0.009 -2.044,-0.0306 l 0.316,0.7125 0.231,-0.2375 h 1.497 v 2.1952 l -0.461,0.4732 0.633,0.6532 V 4.289 h 0.231 c 0.712,0.198 1.426,0.5596 2.146,1.0832 0.72,0.5236 1.204,1.2595 1.452,2.2078 h 0.115 C 26.992,7.2849 27.116,7.0672 27.347,6.9286 26.963,6.2773 26.438,5.7141 25.765,5.2391 25.094,4.7641 24.392,4.4276 23.662,4.2297 24.835,4.0533 25.704,3.6773 26.269,3.1033 26.836,2.5311 27.271,1.7592 27.577,0.78936 L 27.462,0.76057 C 27.174,1.4533 26.812,2.0363 26.37,2.5113 25.929,2.9863 25.42,3.3174 24.844,3.5045 24.268,3.6917 23.663,3.805 23.028,3.8446 V 1.5019 l 0.058,-0.4157 -0.23,-0.23746 z" /></g></g></g></g></g></g></g></g></g></svg>