<?xml version="1.0" encoding="utf-8" standalone="no"?>
<!DOCTYPE svg PUBLIC "-//W3C//DTD SVG 1.1//EN"
  "http://www.w3.org/Graphics/SVG/1.1/DTD/svg11.dtd">
<svg height="960pt" version="1.1" viewBox="0 0 1440 960" width="1440pt" xmlns="http://www.w3.org/2000/svg" xmlns:xlink="http://www.w3.org/1999/xlink">
 <metadata>
  <rdf:RDF xmlns:cc="http://creativecommons.org/ns#" xmlns:dc="http://purl.org/dc/elements/1.1/" xmlns:rdf="http://www.w3.org/1999/02/22-rdf-syntax-ns#">
   <cc:Work>
    <dc:type rdf:resource="http://purl.org/dc/dcmitype/StillImage"/>
    <dc:date>2022-07-01T15:38:32.408980</dc:date>
    <dc:format>image/svg+xml</dc:format>
    <dc:creator>
     <cc:Agent>
      <dc:title>Matplotlib v3.4.3, https://matplotlib.org/</dc:title>
     </cc:Agent>
    </dc:creator>
   </cc:Work>
  </rdf:RDF>
 </metadata>
 <defs>
  <style type="text/css">*{stroke-linecap:butt;stroke-linejoin:round;}</style>
 </defs>
 <g id="figure_1">
  <g id="patch_1">
   <path d="M 0 960 
L 1440 960 
L 1440 0 
L 0 0 
z
" style="fill:#ffffff;"/>
  </g>
  <g id="axes_1">
   <g id="patch_2">
    <path d="M 180 854.4 
L 1296 854.4 
L 1296 115.2 
L 180 115.2 
z
" style="fill:#ffffff;"/>
   </g>
   <g id="matplotlib.axis_1">
    <g id="xtick_1">
     <g id="line2d_1">
      <defs>
       <path d="M 0 0 
L 0 3.5 
" id="m72c0bce248" style="stroke:#000000;stroke-width:0.8;"/>
      </defs>
      <g>
       <use style="stroke:#000000;stroke-width:0.8;" x="230.727273" xlink:href="#m72c0bce248" y="854.4"/>
      </g>
     </g>
     <g id="text_1">
      <!-- 0 -->
      <g transform="translate(224.364773 876.596875)scale(0.2 -0.2)">
       <defs>
        <path d="M 2034 4250 
Q 1547 4250 1301 3770 
Q 1056 3291 1056 2328 
Q 1056 1369 1301 889 
Q 1547 409 2034 409 
Q 2525 409 2770 889 
Q 3016 1369 3016 2328 
Q 3016 3291 2770 3770 
Q 2525 4250 2034 4250 
z
M 2034 4750 
Q 2819 4750 3233 4129 
Q 3647 3509 3647 2328 
Q 3647 1150 3233 529 
Q 2819 -91 2034 -91 
Q 1250 -91 836 529 
Q 422 1150 422 2328 
Q 422 3509 836 4129 
Q 1250 4750 2034 4750 
z
" id="DejaVuSans-30" transform="scale(0.015625)"/>
       </defs>
       <use xlink:href="#DejaVuSans-30"/>
      </g>
     </g>
    </g>
    <g id="xtick_2">
     <g id="line2d_2">
      <g>
       <use style="stroke:#000000;stroke-width:0.8;" x="433.636364" xlink:href="#m72c0bce248" y="854.4"/>
      </g>
     </g>
     <g id="text_2">
      <!-- 200 -->
      <g transform="translate(414.548864 876.596875)scale(0.2 -0.2)">
       <defs>
        <path d="M 1228 531 
L 3431 531 
L 3431 0 
L 469 0 
L 469 531 
Q 828 903 1448 1529 
Q 2069 2156 2228 2338 
Q 2531 2678 2651 2914 
Q 2772 3150 2772 3378 
Q 2772 3750 2511 3984 
Q 2250 4219 1831 4219 
Q 1534 4219 1204 4116 
Q 875 4013 500 3803 
L 500 4441 
Q 881 4594 1212 4672 
Q 1544 4750 1819 4750 
Q 2544 4750 2975 4387 
Q 3406 4025 3406 3419 
Q 3406 3131 3298 2873 
Q 3191 2616 2906 2266 
Q 2828 2175 2409 1742 
Q 1991 1309 1228 531 
z
" id="DejaVuSans-32" transform="scale(0.015625)"/>
       </defs>
       <use xlink:href="#DejaVuSans-32"/>
       <use x="63.623047" xlink:href="#DejaVuSans-30"/>
       <use x="127.246094" xlink:href="#DejaVuSans-30"/>
      </g>
     </g>
    </g>
    <g id="xtick_3">
     <g id="line2d_3">
      <g>
       <use style="stroke:#000000;stroke-width:0.8;" x="636.545455" xlink:href="#m72c0bce248" y="854.4"/>
      </g>
     </g>
     <g id="text_3">
      <!-- 400 -->
      <g transform="translate(617.457955 876.596875)scale(0.2 -0.2)">
       <defs>
        <path d="M 2419 4116 
L 825 1625 
L 2419 1625 
L 2419 4116 
z
M 2253 4666 
L 3047 4666 
L 3047 1625 
L 3713 1625 
L 3713 1100 
L 3047 1100 
L 3047 0 
L 2419 0 
L 2419 1100 
L 313 1100 
L 313 1709 
L 2253 4666 
z
" id="DejaVuSans-34" transform="scale(0.015625)"/>
       </defs>
       <use xlink:href="#DejaVuSans-34"/>
       <use x="63.623047" xlink:href="#DejaVuSans-30"/>
       <use x="127.246094" xlink:href="#DejaVuSans-30"/>
      </g>
     </g>
    </g>
    <g id="xtick_4">
     <g id="line2d_4">
      <g>
       <use style="stroke:#000000;stroke-width:0.8;" x="839.454545" xlink:href="#m72c0bce248" y="854.4"/>
      </g>
     </g>
     <g id="text_4">
      <!-- 600 -->
      <g transform="translate(820.367045 876.596875)scale(0.2 -0.2)">
       <defs>
        <path d="M 2113 2584 
Q 1688 2584 1439 2293 
Q 1191 2003 1191 1497 
Q 1191 994 1439 701 
Q 1688 409 2113 409 
Q 2538 409 2786 701 
Q 3034 994 3034 1497 
Q 3034 2003 2786 2293 
Q 2538 2584 2113 2584 
z
M 3366 4563 
L 3366 3988 
Q 3128 4100 2886 4159 
Q 2644 4219 2406 4219 
Q 1781 4219 1451 3797 
Q 1122 3375 1075 2522 
Q 1259 2794 1537 2939 
Q 1816 3084 2150 3084 
Q 2853 3084 3261 2657 
Q 3669 2231 3669 1497 
Q 3669 778 3244 343 
Q 2819 -91 2113 -91 
Q 1303 -91 875 529 
Q 447 1150 447 2328 
Q 447 3434 972 4092 
Q 1497 4750 2381 4750 
Q 2619 4750 2861 4703 
Q 3103 4656 3366 4563 
z
" id="DejaVuSans-36" transform="scale(0.015625)"/>
       </defs>
       <use xlink:href="#DejaVuSans-36"/>
       <use x="63.623047" xlink:href="#DejaVuSans-30"/>
       <use x="127.246094" xlink:href="#DejaVuSans-30"/>
      </g>
     </g>
    </g>
    <g id="xtick_5">
     <g id="line2d_5">
      <g>
       <use style="stroke:#000000;stroke-width:0.8;" x="1042.363636" xlink:href="#m72c0bce248" y="854.4"/>
      </g>
     </g>
     <g id="text_5">
      <!-- 800 -->
      <g transform="translate(1023.276136 876.596875)scale(0.2 -0.2)">
       <defs>
        <path d="M 2034 2216 
Q 1584 2216 1326 1975 
Q 1069 1734 1069 1313 
Q 1069 891 1326 650 
Q 1584 409 2034 409 
Q 2484 409 2743 651 
Q 3003 894 3003 1313 
Q 3003 1734 2745 1975 
Q 2488 2216 2034 2216 
z
M 1403 2484 
Q 997 2584 770 2862 
Q 544 3141 544 3541 
Q 544 4100 942 4425 
Q 1341 4750 2034 4750 
Q 2731 4750 3128 4425 
Q 3525 4100 3525 3541 
Q 3525 3141 3298 2862 
Q 3072 2584 2669 2484 
Q 3125 2378 3379 2068 
Q 3634 1759 3634 1313 
Q 3634 634 3220 271 
Q 2806 -91 2034 -91 
Q 1263 -91 848 271 
Q 434 634 434 1313 
Q 434 1759 690 2068 
Q 947 2378 1403 2484 
z
M 1172 3481 
Q 1172 3119 1398 2916 
Q 1625 2713 2034 2713 
Q 2441 2713 2670 2916 
Q 2900 3119 2900 3481 
Q 2900 3844 2670 4047 
Q 2441 4250 2034 4250 
Q 1625 4250 1398 4047 
Q 1172 3844 1172 3481 
z
" id="DejaVuSans-38" transform="scale(0.015625)"/>
       </defs>
       <use xlink:href="#DejaVuSans-38"/>
       <use x="63.623047" xlink:href="#DejaVuSans-30"/>
       <use x="127.246094" xlink:href="#DejaVuSans-30"/>
      </g>
     </g>
    </g>
    <g id="xtick_6">
     <g id="line2d_6">
      <g>
       <use style="stroke:#000000;stroke-width:0.8;" x="1245.272727" xlink:href="#m72c0bce248" y="854.4"/>
      </g>
     </g>
     <g id="text_6">
      <!-- 1000 -->
      <g transform="translate(1219.822727 876.596875)scale(0.2 -0.2)">
       <defs>
        <path d="M 794 531 
L 1825 531 
L 1825 4091 
L 703 3866 
L 703 4441 
L 1819 4666 
L 2450 4666 
L 2450 531 
L 3481 531 
L 3481 0 
L 794 0 
L 794 531 
z
" id="DejaVuSans-31" transform="scale(0.015625)"/>
       </defs>
       <use xlink:href="#DejaVuSans-31"/>
       <use x="63.623047" xlink:href="#DejaVuSans-30"/>
       <use x="127.246094" xlink:href="#DejaVuSans-30"/>
       <use x="190.869141" xlink:href="#DejaVuSans-30"/>
      </g>
     </g>
    </g>
    <g id="text_7">
     <!-- 代数 -->
     <g transform="translate(715 902.904688)scale(0.23 -0.23)">
      <defs>
       <path d="M 3300 2950 
Q 3175 4575 3150 5100 
Q 3300 5075 3725 5025 
Q 3675 4725 3800 3050 
Q 5000 3275 5650 3475 
L 5775 3000 
Q 5500 2975 3850 2625 
Q 4150 1050 4737 450 
Q 5325 -150 5412 125 
Q 5500 400 5525 725 
Q 5800 550 6075 500 
Q 5900 -200 5737 -425 
Q 5575 -650 5137 -500 
Q 4700 -350 4187 300 
Q 3675 950 3350 2525 
Q 2400 2325 2175 2250 
L 2025 2725 
Q 2425 2775 3300 2950 
z
M 2250 4975 
Q 2100 4725 1700 3650 
L 1700 475 
Q 1700 -50 1725 -600 
L 1200 -600 
Q 1225 -50 1225 475 
L 1225 2750 
Q 850 2150 600 1850 
Q 450 2050 225 2225 
Q 625 2600 1050 3425 
Q 1475 4250 1675 5200 
Q 2050 5025 2250 4975 
z
M 4700 4875 
Q 5150 4325 5325 4050 
Q 5100 3900 4875 3725 
Q 4650 4150 4300 4575 
Q 4500 4700 4700 4875 
z
" id="SimHei-4ee3" transform="scale(0.015625)"/>
       <path d="M 4525 4925 
Q 4475 4800 4400 4587 
Q 4325 4375 4175 3825 
L 5325 3825 
Q 5575 3825 5925 3850 
L 5925 3400 
Q 5650 3425 5500 3425 
Q 5500 3025 5362 2162 
Q 5225 1300 4875 675 
Q 5125 375 5437 137 
Q 5750 -100 6025 -200 
Q 5725 -425 5625 -625 
Q 5325 -450 5075 -225 
Q 4825 0 4575 325 
Q 4300 25 3987 -187 
Q 3675 -400 3200 -650 
Q 3075 -425 2850 -300 
Q 3225 -150 3650 125 
Q 4075 400 4300 675 
Q 4125 1025 3962 1425 
Q 3800 1825 3675 2475 
Q 3600 2275 3425 1950 
Q 3250 2050 3000 2150 
Q 3400 2850 3650 3675 
Q 3900 4500 3975 5100 
Q 4275 4975 4525 4925 
z
M 2100 2250 
Q 2000 2150 1875 1925 
L 3250 1925 
Q 3100 1300 2725 675 
Q 3125 525 3350 400 
Q 3225 225 3125 25 
Q 2900 175 2450 325 
Q 1950 -225 725 -650 
Q 600 -375 400 -275 
Q 1575 0 2000 475 
Q 1300 650 850 775 
Q 1000 1000 1250 1525 
Q 1000 1525 425 1500 
L 425 1950 
Q 900 1925 1400 1925 
Q 1500 2150 1550 2425 
Q 1825 2325 2100 2250 
z
M 1775 3950 
Q 1775 4550 1750 5100 
L 2250 5100 
Q 2225 4575 2225 3950 
Q 3075 3950 3425 3975 
L 3425 3525 
Q 3075 3550 2225 3550 
Q 2225 2825 2250 2425 
L 1750 2425 
Q 1775 2775 1775 3300 
Q 1650 3100 1300 2787 
Q 950 2475 650 2300 
Q 525 2525 275 2625 
Q 500 2700 875 2975 
Q 1250 3250 1450 3550 
Q 950 3550 500 3525 
L 500 3975 
Q 925 3950 1775 3950 
z
M 3975 3175 
Q 4200 1700 4600 1125 
Q 4850 1700 4937 2287 
Q 5025 2875 5050 3425 
L 4075 3425 
L 3975 3175 
z
M 1450 1000 
Q 1750 925 2275 800 
Q 2475 1050 2650 1525 
L 1725 1525 
Q 1600 1275 1450 1000 
z
M 3325 4825 
Q 3200 4625 3125 4450 
Q 3050 4275 2925 4025 
Q 2725 4125 2525 4175 
Q 2725 4500 2900 5000 
Q 3150 4875 3325 4825 
z
M 2575 3375 
Q 2900 3050 3200 2725 
Q 3050 2600 2875 2425 
Q 2525 2850 2300 3100 
Q 2450 3225 2575 3375 
z
M 925 5000 
Q 1275 4650 1500 4300 
L 1125 4075 
Q 950 4425 600 4725 
Q 825 4875 925 5000 
z
" id="SimHei-6570" transform="scale(0.015625)"/>
      </defs>
      <use xlink:href="#SimHei-4ee3"/>
      <use x="100" xlink:href="#SimHei-6570"/>
     </g>
    </g>
   </g>
   <g id="matplotlib.axis_2">
    <g id="ytick_1">
     <g id="line2d_7">
      <defs>
       <path d="M 0 0 
L -3.5 0 
" id="mf470f03b35" style="stroke:#000000;stroke-width:0.8;"/>
      </defs>
      <g>
       <use style="stroke:#000000;stroke-width:0.8;" x="180" xlink:href="#mf470f03b35" y="820.8"/>
      </g>
     </g>
     <g id="text_8">
      <!-- 0 -->
      <g transform="translate(160.275 828.398438)scale(0.2 -0.2)">
       <use xlink:href="#DejaVuSans-30"/>
      </g>
     </g>
    </g>
    <g id="ytick_2">
     <g id="line2d_8">
      <g>
       <use style="stroke:#000000;stroke-width:0.8;" x="180" xlink:href="#mf470f03b35" y="706.901695"/>
      </g>
     </g>
     <g id="text_9">
      <!-- 100 -->
      <g transform="translate(134.825 714.500132)scale(0.2 -0.2)">
       <use xlink:href="#DejaVuSans-31"/>
       <use x="63.623047" xlink:href="#DejaVuSans-30"/>
       <use x="127.246094" xlink:href="#DejaVuSans-30"/>
      </g>
     </g>
    </g>
    <g id="ytick_3">
     <g id="line2d_9">
      <g>
       <use style="stroke:#000000;stroke-width:0.8;" x="180" xlink:href="#mf470f03b35" y="593.00339"/>
      </g>
     </g>
     <g id="text_10">
      <!-- 200 -->
      <g transform="translate(134.825 600.601827)scale(0.2 -0.2)">
       <use xlink:href="#DejaVuSans-32"/>
       <use x="63.623047" xlink:href="#DejaVuSans-30"/>
       <use x="127.246094" xlink:href="#DejaVuSans-30"/>
      </g>
     </g>
    </g>
    <g id="ytick_4">
     <g id="line2d_10">
      <g>
       <use style="stroke:#000000;stroke-width:0.8;" x="180" xlink:href="#mf470f03b35" y="479.105085"/>
      </g>
     </g>
     <g id="text_11">
      <!-- 300 -->
      <g transform="translate(134.825 486.703522)scale(0.2 -0.2)">
       <defs>
        <path d="M 2597 2516 
Q 3050 2419 3304 2112 
Q 3559 1806 3559 1356 
Q 3559 666 3084 287 
Q 2609 -91 1734 -91 
Q 1441 -91 1130 -33 
Q 819 25 488 141 
L 488 750 
Q 750 597 1062 519 
Q 1375 441 1716 441 
Q 2309 441 2620 675 
Q 2931 909 2931 1356 
Q 2931 1769 2642 2001 
Q 2353 2234 1838 2234 
L 1294 2234 
L 1294 2753 
L 1863 2753 
Q 2328 2753 2575 2939 
Q 2822 3125 2822 3475 
Q 2822 3834 2567 4026 
Q 2313 4219 1838 4219 
Q 1578 4219 1281 4162 
Q 984 4106 628 3988 
L 628 4550 
Q 988 4650 1302 4700 
Q 1616 4750 1894 4750 
Q 2613 4750 3031 4423 
Q 3450 4097 3450 3541 
Q 3450 3153 3228 2886 
Q 3006 2619 2597 2516 
z
" id="DejaVuSans-33" transform="scale(0.015625)"/>
       </defs>
       <use xlink:href="#DejaVuSans-33"/>
       <use x="63.623047" xlink:href="#DejaVuSans-30"/>
       <use x="127.246094" xlink:href="#DejaVuSans-30"/>
      </g>
     </g>
    </g>
    <g id="ytick_5">
     <g id="line2d_11">
      <g>
       <use style="stroke:#000000;stroke-width:0.8;" x="180" xlink:href="#mf470f03b35" y="365.20678"/>
      </g>
     </g>
     <g id="text_12">
      <!-- 400 -->
      <g transform="translate(134.825 372.805217)scale(0.2 -0.2)">
       <use xlink:href="#DejaVuSans-34"/>
       <use x="63.623047" xlink:href="#DejaVuSans-30"/>
       <use x="127.246094" xlink:href="#DejaVuSans-30"/>
      </g>
     </g>
    </g>
    <g id="ytick_6">
     <g id="line2d_12">
      <g>
       <use style="stroke:#000000;stroke-width:0.8;" x="180" xlink:href="#mf470f03b35" y="251.308475"/>
      </g>
     </g>
     <g id="text_13">
      <!-- 500 -->
      <g transform="translate(134.825 258.906912)scale(0.2 -0.2)">
       <defs>
        <path d="M 691 4666 
L 3169 4666 
L 3169 4134 
L 1269 4134 
L 1269 2991 
Q 1406 3038 1543 3061 
Q 1681 3084 1819 3084 
Q 2600 3084 3056 2656 
Q 3513 2228 3513 1497 
Q 3513 744 3044 326 
Q 2575 -91 1722 -91 
Q 1428 -91 1123 -41 
Q 819 9 494 109 
L 494 744 
Q 775 591 1075 516 
Q 1375 441 1709 441 
Q 2250 441 2565 725 
Q 2881 1009 2881 1497 
Q 2881 1984 2565 2268 
Q 2250 2553 1709 2553 
Q 1456 2553 1204 2497 
Q 953 2441 691 2322 
L 691 4666 
z
" id="DejaVuSans-35" transform="scale(0.015625)"/>
       </defs>
       <use xlink:href="#DejaVuSans-35"/>
       <use x="63.623047" xlink:href="#DejaVuSans-30"/>
       <use x="127.246094" xlink:href="#DejaVuSans-30"/>
      </g>
     </g>
    </g>
    <g id="ytick_7">
     <g id="line2d_13">
      <g>
       <use style="stroke:#000000;stroke-width:0.8;" x="180" xlink:href="#mf470f03b35" y="137.410169"/>
      </g>
     </g>
     <g id="text_14">
      <!-- 600 -->
      <g transform="translate(134.825 145.008607)scale(0.2 -0.2)">
       <use xlink:href="#DejaVuSans-36"/>
       <use x="63.623047" xlink:href="#DejaVuSans-30"/>
       <use x="127.246094" xlink:href="#DejaVuSans-30"/>
      </g>
     </g>
    </g>
    <g id="text_15">
     <!-- 每代最大适应度 -->
     <g transform="translate(127.95 565.3)rotate(-90)scale(0.23 -0.23)">
      <defs>
       <path d="M 5225 3650 
Q 5175 3150 5150 2675 
L 5125 2200 
Q 5525 2200 6000 2225 
L 6000 1775 
Q 5625 1800 5100 1800 
L 5050 650 
Q 5325 650 5700 675 
L 5700 225 
Q 5400 250 5025 250 
Q 5000 -275 4775 -425 
Q 4550 -575 4000 -650 
Q 3950 -400 3775 -125 
Q 4375 -125 4475 -50 
Q 4575 25 4575 250 
L 1400 250 
L 1500 1100 
L 1550 1800 
L 1275 1800 
Q 825 1800 550 1775 
L 550 2225 
Q 975 2200 1275 2200 
L 1575 2200 
L 1625 2825 
L 1675 3650 
L 5225 3650 
z
M 2350 5000 
Q 2175 4825 2050 4600 
L 4875 4600 
Q 5275 4600 5775 4625 
L 5775 4175 
Q 5275 4200 4875 4200 
L 1825 4200 
L 1375 3625 
Q 1125 3325 775 2975 
Q 600 3175 350 3300 
Q 725 3575 1150 4112 
Q 1575 4650 1825 5250 
Q 2125 5075 2350 5000 
z
M 1975 1800 
L 1875 650 
L 4625 650 
L 4675 1800 
L 2950 1800 
Q 3575 1275 3825 1125 
Q 3625 925 3475 725 
Q 3100 1100 2650 1475 
Q 2775 1675 2875 1800 
L 1975 1800 
z
M 2975 3250 
Q 3125 3150 3287 3012 
Q 3450 2875 3800 2550 
Q 3650 2350 3525 2200 
L 4700 2200 
L 4750 3250 
L 2975 3250 
z
M 2075 3250 
L 2000 2200 
L 3425 2200 
Q 3150 2500 3012 2625 
Q 2875 2750 2700 2900 
Q 2800 3050 2925 3250 
L 2075 3250 
z
" id="SimHei-6bcf" transform="scale(0.015625)"/>
       <path d="M 475 275 
Q 675 300 1100 350 
L 1100 2450 
Q 775 2450 425 2425 
L 425 2850 
Q 775 2825 1125 2825 
L 5025 2825 
Q 5475 2825 5900 2850 
L 5900 2425 
Q 5475 2450 5025 2450 
L 3050 2450 
L 3050 675 
L 3400 775 
Q 3400 550 3425 400 
Q 3225 350 3050 325 
Q 3050 -125 3075 -550 
L 2600 -550 
Q 2625 -125 2625 250 
Q 2350 200 1812 87 
Q 1275 -25 650 -175 
Q 575 100 475 275 
z
M 5100 4925 
Q 5075 4600 5075 4325 
L 5075 3875 
Q 5075 3600 5100 3250 
L 1275 3250 
Q 1300 3600 1300 3875 
L 1300 4325 
Q 1300 4600 1275 4925 
L 5100 4925 
z
M 3300 2050 
Q 3750 2025 4125 2025 
L 5375 2025 
Q 5100 975 4725 400 
Q 5350 0 5925 -100 
Q 5700 -275 5650 -500 
Q 5025 -300 4475 150 
Q 4150 -200 3600 -575 
Q 3500 -425 3250 -275 
Q 3775 -100 4150 350 
Q 3725 775 3500 1675 
L 3300 1675 
L 3300 2050 
z
M 4600 4250 
L 4600 4600 
L 1750 4600 
L 1750 4250 
L 4600 4250 
z
M 4600 3575 
L 4600 3900 
L 1750 3900 
L 1750 3575 
L 4600 3575 
z
M 3900 1675 
Q 4000 1075 4400 625 
Q 4700 1050 4850 1675 
L 3900 1675 
z
M 2625 1250 
L 2625 1675 
L 1525 1675 
L 1525 1250 
L 2625 1250 
z
M 2625 575 
L 2625 925 
L 1525 925 
L 1525 425 
L 2625 575 
z
M 2625 2025 
L 2625 2450 
L 1525 2450 
L 1525 2025 
L 2625 2025 
z
" id="SimHei-6700" transform="scale(0.015625)"/>
       <path d="M 2900 3400 
Q 2925 4275 2912 4575 
Q 2900 4875 2875 5150 
Q 3175 5100 3550 5075 
Q 3475 4825 3437 4350 
Q 3400 3875 3400 3400 
L 4675 3400 
Q 5350 3400 5925 3450 
L 5925 2900 
Q 5425 2925 4900 2925 
L 3425 2925 
Q 3525 2500 3775 2062 
Q 4025 1625 4287 1287 
Q 4550 950 5012 575 
Q 5475 200 6025 -50 
Q 5825 -200 5625 -550 
Q 5175 -300 4737 75 
Q 4300 450 3862 1062 
Q 3425 1675 3200 2200 
Q 3000 1650 2775 1287 
Q 2550 925 2287 625 
Q 2025 325 1612 25 
Q 1200 -275 675 -575 
Q 475 -275 225 -50 
Q 750 125 1262 450 
Q 1775 775 2100 1187 
Q 2425 1600 2625 2050 
Q 2825 2500 2875 2925 
L 1500 2925 
Q 900 2925 550 2900 
L 550 3450 
Q 900 3425 1500 3400 
L 2900 3400 
z
" id="SimHei-5927" transform="scale(0.015625)"/>
       <path d="M 5500 4625 
Q 5175 4625 4125 4525 
L 4125 3600 
Q 5450 3600 5850 3625 
L 5850 3175 
Q 5450 3200 4125 3200 
L 4125 2475 
L 5425 2475 
Q 5400 1850 5400 1475 
Q 5400 1100 5425 450 
L 4950 450 
L 4950 750 
L 2900 750 
L 2900 425 
L 2425 425 
Q 2450 1050 2450 1450 
Q 2450 1850 2425 2475 
L 3675 2475 
L 3675 3200 
Q 2375 3200 1975 3175 
L 1975 3625 
Q 2300 3600 3675 3600 
L 3675 4475 
Q 3375 4450 2475 4350 
Q 2425 4575 2250 4775 
Q 3075 4775 3875 4875 
Q 4675 4975 5250 5125 
Q 5300 4950 5500 4625 
z
M 1625 2850 
Q 1600 2400 1600 1925 
L 1600 625 
Q 2250 75 3625 12 
Q 5000 -50 6025 150 
Q 5875 -125 5775 -450 
L 4100 -450 
Q 3475 -450 2937 -375 
Q 2400 -300 1912 -37 
Q 1425 225 1212 -12 
Q 1000 -250 775 -550 
Q 525 -350 325 -250 
Q 875 275 1150 475 
L 1150 2450 
Q 750 2450 400 2425 
L 400 2875 
Q 775 2850 1100 2850 
L 1625 2850 
z
M 4950 1150 
L 4950 2075 
L 2900 2075 
L 2900 1150 
L 4950 1150 
z
M 1025 4850 
Q 1450 4400 1775 3925 
Q 1475 3750 1375 3625 
Q 1100 4075 650 4550 
Q 875 4675 1025 4850 
z
" id="SimHei-9002" transform="scale(0.015625)"/>
       <path d="M 3525 5275 
Q 3700 4825 3850 4400 
L 4750 4400 
Q 5275 4400 5850 4425 
L 5850 3975 
Q 5275 4000 4750 4000 
L 1475 4000 
Q 1475 2525 1425 1900 
Q 1375 1275 1237 625 
Q 1100 -25 750 -625 
Q 575 -400 300 -250 
Q 625 175 800 937 
Q 975 1700 1000 2575 
Q 1025 3450 1000 4400 
L 3250 4400 
Q 3175 4750 3000 5100 
Q 3250 5150 3525 5275 
z
M 5625 3125 
Q 5375 2575 5187 2050 
Q 5000 1525 4450 225 
L 5150 225 
Q 5500 225 5925 250 
L 5925 -275 
Q 5500 -250 5150 -250 
L 2475 -250 
Q 2050 -250 1450 -275 
L 1450 250 
Q 2025 225 2475 225 
L 3950 225 
Q 4325 1000 4612 1850 
Q 4900 2700 5025 3350 
Q 5350 3175 5625 3125 
z
M 2100 2850 
Q 2750 1825 3075 1050 
Q 2900 950 2650 800 
Q 2150 1925 1700 2575 
Q 1925 2750 2100 2850 
z
M 3300 3425 
Q 3800 2550 4175 1700 
Q 3950 1575 3700 1450 
Q 3400 2300 2900 3200 
Q 3100 3275 3300 3425 
z
" id="SimHei-5e94" transform="scale(0.015625)"/>
       <path d="M 1750 1675 
Q 2450 1650 2875 1650 
L 5200 1650 
Q 4975 1250 4650 850 
Q 4325 450 4025 200 
Q 4350 50 4950 -50 
Q 5550 -150 6100 -150 
Q 5950 -300 5825 -650 
Q 5100 -550 4550 -412 
Q 4000 -275 3625 -100 
Q 3100 -325 2587 -462 
Q 2075 -600 1525 -675 
Q 1450 -475 1225 -250 
Q 1675 -250 2250 -125 
Q 2825 0 3250 200 
Q 2825 550 2400 1275 
L 1750 1250 
L 1750 1675 
z
M 2975 5075 
Q 3250 5150 3475 5250 
Q 3625 4975 3775 4525 
L 4700 4525 
Q 4975 4525 5700 4550 
L 5700 4100 
Q 5000 4125 4650 4125 
L 1375 4125 
Q 1375 3000 1350 2312 
Q 1325 1625 1212 950 
Q 1100 275 725 -525 
Q 500 -375 250 -300 
Q 650 400 762 1075 
Q 875 1750 887 2800 
Q 900 3850 875 4525 
L 3200 4525 
Q 3100 4850 2975 5075 
z
M 2475 3300 
Q 2475 3700 2450 3925 
L 2975 3925 
Q 2950 3725 2950 3300 
L 4300 3300 
Q 4300 3700 4275 3950 
L 4800 3950 
Q 4775 3650 4775 3300 
Q 5325 3300 5725 3325 
L 5725 2900 
Q 5350 2925 4775 2925 
Q 4775 2250 4800 1950 
L 2450 1950 
Q 2475 2350 2475 2925 
Q 2175 2925 1600 2900 
L 1600 3325 
Q 2175 3300 2475 3300 
z
M 4300 2350 
L 4300 2925 
L 2950 2925 
L 2950 2350 
L 4300 2350 
z
M 2875 1275 
Q 3200 775 3650 425 
Q 4025 700 4425 1275 
L 2900 1275 
L 2875 1275 
z
" id="SimHei-5ea6" transform="scale(0.015625)"/>
      </defs>
      <use xlink:href="#SimHei-6bcf"/>
      <use x="100" xlink:href="#SimHei-4ee3"/>
      <use x="200" xlink:href="#SimHei-6700"/>
      <use x="300" xlink:href="#SimHei-5927"/>
      <use x="400" xlink:href="#SimHei-9002"/>
      <use x="500" xlink:href="#SimHei-5e94"/>
      <use x="600" xlink:href="#SimHei-5ea6"/>
     </g>
    </g>
   </g>
   <g id="LineCollection_1">
    <path clip-path="url(#p32360f3fed)" d="M 230.727273 148.8 
L 1245.272727 148.8 
" style="fill:none;stroke:#008000;stroke-dasharray:5.55,2.4;stroke-dashoffset:0;stroke-width:1.5;"/>
   </g>
   <g id="line2d_14">
    <path clip-path="url(#p32360f3fed)" d="M 230.727273 798.020339 
L 231.741818 798.020339 
L 232.756364 794.60339 
L 233.770909 741.071186 
L 234.785455 775.240678 
L 235.8 775.240678 
L 236.814545 789.819661 
L 237.829091 786.630508 
L 238.843636 803.715254 
L 239.858182 786.630508 
L 240.872727 786.630508 
L 241.887273 793.692203 
L 242.901818 763.850847 
L 243.916364 786.630508 
L 244.930909 775.240678 
L 245.945455 783.441356 
L 246.96 741.071186 
L 247.974545 763.850847 
L 248.989091 763.850847 
L 250.003636 769.317966 
L 251.018182 786.630508 
L 252.032727 798.020339 
L 254.061818 775.240678 
L 255.076364 782.074576 
L 256.090909 775.240678 
L 257.105455 775.240678 
L 258.12 752.461017 
L 259.134545 786.630508 
L 262.178182 786.630508 
L 263.192727 781.618983 
L 264.207273 763.850847 
L 266.236364 763.850847 
L 267.250909 753.6 
L 268.265455 775.240678 
L 269.28 786.630508 
L 270.294545 763.850847 
L 271.309091 768.40678 
L 272.323636 752.461017 
L 273.338182 763.850847 
L 274.352727 771.368136 
L 275.367273 775.240678 
L 276.381818 763.850847 
L 277.396364 763.850847 
L 278.410909 762.484068 
L 279.425455 706.901695 
L 280.44 706.901695 
L 281.454545 729.681356 
L 282.469091 809.410169 
L 283.483636 820.8 
L 285.512727 820.8 
L 286.527273 794.831186 
L 287.541818 763.850847 
L 288.556364 706.901695 
L 289.570909 741.071186 
L 290.585455 798.020339 
L 292.614545 775.240678 
L 293.629091 814.193898 
L 294.643636 809.410169 
L 295.658182 803.715254 
L 296.672727 809.410169 
L 297.687273 809.410169 
L 298.701818 798.020339 
L 299.716364 798.020339 
L 300.730909 786.630508 
L 302.76 741.071186 
L 303.774545 729.681356 
L 304.789091 723.986441 
L 305.803636 787.541695 
L 306.818182 809.410169 
L 307.832727 803.715254 
L 308.847273 763.850847 
L 309.861818 800.753898 
L 310.876364 763.850847 
L 312.905455 763.850847 
L 313.92 775.240678 
L 314.934545 729.681356 
L 315.949091 763.850847 
L 316.963636 729.681356 
L 317.978182 791.186441 
L 318.992727 786.630508 
L 320.007273 763.850847 
L 321.021818 786.630508 
L 322.036364 776.607458 
L 323.050909 741.071186 
L 324.065455 729.681356 
L 325.08 735.376271 
L 326.094545 759.181017 
L 327.109091 752.461017 
L 328.123636 729.681356 
L 329.138182 729.681356 
L 330.152727 752.461017 
L 331.167273 752.461017 
L 332.181818 741.071186 
L 333.196364 718.291525 
L 334.210909 729.681356 
L 335.225455 775.240678 
L 336.24 695.511864 
L 337.254545 748.474576 
L 338.269091 729.681356 
L 339.283636 718.291525 
L 340.298182 729.681356 
L 341.312727 763.850847 
L 342.327273 775.240678 
L 343.341818 763.850847 
L 344.356364 763.850847 
L 345.370909 723.986441 
L 346.385455 718.291525 
L 347.4 729.681356 
L 348.414545 751.094237 
L 349.429091 741.071186 
L 350.443636 729.681356 
L 351.458182 733.781695 
L 352.472727 718.291525 
L 353.487273 706.901695 
L 354.501818 736.515254 
L 355.516364 729.681356 
L 356.530909 729.681356 
L 357.545455 741.071186 
L 358.56 695.511864 
L 359.574545 684.122034 
L 360.589091 678.199322 
L 361.603636 718.291525 
L 362.618182 706.901695 
L 363.632727 680.249492 
L 364.647273 684.122034 
L 365.661818 581.613559 
L 366.676364 661.342373 
L 367.690909 729.681356 
L 368.705455 729.681356 
L 369.72 718.291525 
L 370.734545 741.52678 
L 371.749091 684.122034 
L 372.763636 695.511864 
L 373.778182 695.511864 
L 374.792727 742.210169 
L 375.807273 741.071186 
L 376.821818 741.071186 
L 377.836364 714.874576 
L 378.850909 649.952542 
L 380.88 649.952542 
L 381.894545 672.732203 
L 383.923636 672.732203 
L 384.938182 695.511864 
L 385.952727 649.952542 
L 386.967273 684.122034 
L 387.981818 711.91322 
L 388.996364 695.511864 
L 390.010909 684.122034 
L 391.025455 695.056271 
L 392.04 661.342373 
L 393.054545 695.511864 
L 394.069091 705.762712 
L 395.083636 695.511864 
L 396.098182 689.816949 
L 397.112727 714.874576 
L 398.127273 672.732203 
L 399.141818 649.952542 
L 400.156364 684.577627 
L 402.185455 661.342373 
L 403.2 662.936949 
L 404.214545 615.783051 
L 405.229091 615.783051 
L 406.243636 695.511864 
L 407.258182 695.511864 
L 408.272727 678.427119 
L 409.287273 639.246102 
L 410.301818 570.223729 
L 411.316364 593.00339 
L 412.330909 604.39322 
L 413.345455 661.342373 
L 414.36 665.670508 
L 415.374545 627.172881 
L 416.389091 627.172881 
L 417.403636 650.863729 
L 418.418182 604.39322 
L 419.432727 615.783051 
L 420.447273 665.442712 
L 421.461818 649.952542 
L 422.476364 661.342373 
L 423.490909 654.280678 
L 424.505455 627.172881 
L 425.52 615.783051 
L 426.534545 669.315254 
L 427.549091 661.342373 
L 428.563636 661.342373 
L 429.578182 645.39661 
L 430.592727 581.613559 
L 431.607273 593.00339 
L 432.621818 672.390508 
L 434.650909 695.511864 
L 435.665455 672.732203 
L 436.68 621.477966 
L 437.694545 610.088136 
L 438.709091 581.613559 
L 439.723636 593.00339 
L 440.738182 627.172881 
L 441.752727 610.088136 
L 442.767273 613.505085 
L 443.781818 627.172881 
L 444.796364 638.562712 
L 445.810909 645.852203 
L 446.825455 593.00339 
L 447.84 581.613559 
L 448.854545 647.674576 
L 449.869091 615.783051 
L 450.883636 593.00339 
L 451.898182 626.945085 
L 452.912727 604.39322 
L 453.927273 604.39322 
L 454.941818 595.509153 
L 455.956364 593.00339 
L 456.970909 593.00339 
L 457.985455 536.054237 
L 459 661.342373 
L 460.014545 649.952542 
L 461.029091 627.172881 
L 462.043636 688.677966 
L 463.058182 661.342373 
L 464.072727 672.732203 
L 465.087273 675.579661 
L 466.101818 621.477966 
L 467.116364 627.172881 
L 468.130909 581.613559 
L 469.145455 672.732203 
L 470.16 627.172881 
L 471.174545 627.172881 
L 472.189091 639.815593 
L 473.203636 610.088136 
L 474.218182 615.783051 
L 475.232727 645.852203 
L 476.247273 593.00339 
L 477.261818 570.223729 
L 478.276364 598.014915 
L 479.290909 604.39322 
L 480.305455 604.39322 
L 481.32 593.00339 
L 482.334545 666.126102 
L 483.349091 638.562712 
L 485.378182 638.562712 
L 486.392727 536.054237 
L 487.407273 513.274576 
L 488.421818 513.274576 
L 489.436364 604.39322 
L 490.450909 610.088136 
L 491.465455 558.833898 
L 492.48 626.717288 
L 493.494545 627.172881 
L 494.509091 627.172881 
L 495.523636 607.810169 
L 496.538182 593.00339 
L 497.552727 558.833898 
L 498.567273 570.223729 
L 499.581818 513.274576 
L 500.596364 513.274576 
L 501.610909 566.578983 
L 502.625455 604.39322 
L 503.64 536.054237 
L 504.654545 600.065085 
L 505.669091 615.783051 
L 506.683636 593.00339 
L 507.698182 629.450847 
L 508.712727 570.223729 
L 509.727273 593.00339 
L 510.741818 539.471186 
L 511.756364 661.342373 
L 513.785455 638.562712 
L 514.8 629.906441 
L 515.814545 581.613559 
L 516.829091 570.223729 
L 517.843636 622.730847 
L 518.858182 570.223729 
L 519.872727 570.223729 
L 520.887273 581.613559 
L 521.901818 649.952542 
L 522.916364 615.783051 
L 523.930909 604.39322 
L 524.945455 628.084068 
L 525.96 513.274576 
L 526.974545 467.715254 
L 527.989091 572.501695 
L 529.003636 581.613559 
L 530.018182 593.00339 
L 531.032727 587.991864 
L 532.047273 564.528814 
L 533.061818 524.664407 
L 534.076364 580.474576 
L 535.090909 627.172881 
L 536.105455 593.00339 
L 537.12 618.061017 
L 538.134545 570.223729 
L 539.149091 604.39322 
L 540.163636 615.327458 
L 541.178182 558.833898 
L 543.207273 558.833898 
L 544.221818 604.39322 
L 545.236364 570.223729 
L 546.250909 587.308475 
L 547.265455 547.444068 
L 548.28 581.613559 
L 549.294545 558.833898 
L 550.309091 596.648136 
L 551.323636 524.664407 
L 552.338182 536.054237 
L 553.352727 550.861017 
L 554.367273 513.274576 
L 555.381818 513.274576 
L 556.396364 520.564068 
L 557.410909 513.274576 
L 558.425455 570.223729 
L 559.44 433.545763 
L 560.454545 570.223729 
L 561.469091 501.884746 
L 562.483636 519.880678 
L 563.498182 479.105085 
L 564.512727 456.325424 
L 565.527273 483.205424 
L 566.541818 353.816949 
L 567.556364 433.545763 
L 568.570909 387.986441 
L 569.585455 433.545763 
L 570.6 441.063051 
L 571.614545 558.833898 
L 572.629091 541.749153 
L 573.643636 544.368814 
L 574.658182 450.630508 
L 575.672727 444.935593 
L 576.687273 473.410169 
L 577.701818 490.494915 
L 578.716364 547.444068 
L 579.730909 547.444068 
L 580.745455 406.437966 
L 581.76 399.376271 
L 582.774545 376.59661 
L 583.789091 422.155932 
L 584.803636 399.376271 
L 585.818182 402.565424 
L 586.832727 387.986441 
L 587.847273 433.545763 
L 588.861818 404.16 
L 589.876364 342.427119 
L 590.890909 331.037288 
L 591.905455 353.816949 
L 592.92 387.986441 
L 593.934545 376.59661 
L 594.949091 460.539661 
L 595.963636 490.494915 
L 596.978182 501.884746 
L 597.992727 429.901017 
L 599.007273 331.037288 
L 600.021818 331.037288 
L 601.036364 456.325424 
L 602.050909 467.715254 
L 603.065455 487.419661 
L 604.08 433.545763 
L 605.094545 433.545763 
L 606.109091 443.227119 
L 607.123636 370.901695 
L 608.138182 370.901695 
L 609.152727 362.928814 
L 610.167273 359.511864 
L 611.181818 336.732203 
L 612.196364 457.23661 
L 613.210909 444.935593 
L 614.225455 457.23661 
L 615.24 387.986441 
L 616.254545 399.376271 
L 617.269091 383.772203 
L 618.283636 365.20678 
L 619.298182 387.986441 
L 620.312727 434.912542 
L 621.327273 405.071186 
L 622.341818 407.349153 
L 623.356364 399.376271 
L 624.370909 433.545763 
L 625.385455 410.538305 
L 626.4 365.20678 
L 627.414545 359.511864 
L 628.429091 407.121356 
L 629.443636 376.59661 
L 630.458182 370.901695 
L 631.472727 422.155932 
L 632.487273 393.681356 
L 633.501818 408.488136 
L 634.516364 319.647458 
L 635.530909 319.647458 
L 636.545455 411.677288 
L 637.56 433.545763 
L 638.574545 416.461017 
L 639.589091 387.986441 
L 640.603636 387.986441 
L 641.618182 370.901695 
L 642.632727 365.20678 
L 643.647273 399.376271 
L 644.661818 365.20678 
L 645.676364 365.20678 
L 646.690909 451.997288 
L 647.705455 427.850847 
L 648.72 547.444068 
L 649.734545 387.986441 
L 650.749091 479.105085 
L 651.763636 399.376271 
L 652.778182 353.816949 
L 653.792727 387.986441 
L 654.807273 359.284068 
L 655.821818 370.901695 
L 656.836364 353.816949 
L 657.850909 422.155932 
L 658.865455 433.545763 
L 659.88 427.850847 
L 660.894545 400.287458 
L 661.909091 348.122034 
L 662.923636 342.427119 
L 663.938182 477.282712 
L 664.952727 479.105085 
L 665.967273 479.105085 
L 666.981818 365.20678 
L 667.996364 376.59661 
L 669.010909 394.820339 
L 670.025455 296.867797 
L 671.04 331.037288 
L 672.054545 464.753898 
L 673.069091 467.715254 
L 674.083636 475.232542 
L 675.098182 439.240678 
L 676.112727 433.545763 
L 677.127273 445.16339 
L 678.141818 405.071186 
L 679.156364 399.376271 
L 680.170909 407.235254 
L 681.185455 382.291525 
L 682.2 387.986441 
L 683.214545 325.342373 
L 684.229091 331.037288 
L 685.243636 344.705085 
L 686.258182 308.257627 
L 687.272727 296.867797 
L 688.287273 393.681356 
L 689.301818 393.681356 
L 690.316364 392.08678 
L 691.330909 285.477966 
L 692.345455 274.088136 
L 693.36 300.558102 
L 694.374545 262.698305 
L 695.389091 313.383051 
L 696.403636 262.698305 
L 697.418182 262.698305 
L 698.432727 406.437966 
L 699.447273 422.155932 
L 700.461818 426.256271 
L 701.476364 365.20678 
L 702.490909 353.816949 
L 703.505455 357.689492 
L 704.52 336.732203 
L 705.534545 336.732203 
L 706.549091 342.427119 
L 707.563636 308.257627 
L 708.578182 366.117966 
L 709.592727 331.037288 
L 710.607273 349.03322 
L 711.621818 285.477966 
L 712.636364 285.477966 
L 713.650909 282.744407 
L 714.665455 222.833898 
L 715.68 289.806102 
L 716.694545 274.088136 
L 717.709091 274.088136 
L 718.723636 282.51661 
L 719.738182 262.698305 
L 720.752727 306.207458 
L 721.767273 342.427119 
L 722.781818 308.257627 
L 723.796364 322.381017 
L 724.810909 291.172881 
L 725.825455 313.724746 
L 726.84 331.037288 
L 727.854545 365.20678 
L 728.869091 339.010169 
L 729.883636 308.257627 
L 730.898182 311.105085 
L 731.912727 331.037288 
L 732.927273 353.816949 
L 733.941818 359.967458 
L 734.956364 359.511864 
L 735.970909 364.52339 
L 736.985455 285.477966 
L 738 285.477966 
L 739.014545 308.71322 
L 740.029091 291.172881 
L 741.043636 322.608814 
L 742.058182 365.20678 
L 743.072727 348.122034 
L 744.087273 376.59661 
L 745.101818 348.122034 
L 746.116364 353.816949 
L 747.130909 296.867797 
L 749.16 342.427119 
L 750.174545 331.037288 
L 751.189091 347.894237 
L 752.203636 308.257627 
L 753.218182 337.871186 
L 754.232727 399.376271 
L 755.247273 399.376271 
L 756.261818 392.08678 
L 757.276364 399.376271 
L 758.290909 391.175593 
L 759.305455 387.986441 
L 760.32 376.59661 
L 761.334545 359.739661 
L 762.349091 308.257627 
L 763.363636 333.315254 
L 764.378182 251.308475 
L 765.392727 262.698305 
L 766.407273 326.936949 
L 767.421818 331.037288 
L 768.436364 318.508475 
L 769.450909 239.918644 
L 770.465455 239.918644 
L 771.48 376.824407 
L 772.494545 387.986441 
L 773.509091 390.264407 
L 774.523636 302.562712 
L 775.538182 319.647458 
L 776.552727 278.757966 
L 777.567273 268.39322 
L 778.581818 307.346441 
L 779.596364 325.342373 
L 780.610909 308.257627 
L 781.625455 339.693559 
L 782.64 319.647458 
L 783.654545 320.786441 
L 784.669091 251.308475 
L 785.683636 251.308475 
L 786.698182 318.280678 
L 787.712727 308.257627 
L 788.727273 381.835932 
L 789.741818 427.850847 
L 790.756364 439.240678 
L 791.770909 296.867797 
L 792.785455 296.867797 
L 793.8 342.654915 
L 794.814545 319.647458 
L 795.829091 336.732203 
L 796.843636 376.59661 
L 797.858182 365.20678 
L 798.872727 367.940339 
L 799.887273 308.257627 
L 800.901818 308.257627 
L 801.916364 331.037288 
L 802.930909 342.427119 
L 803.945455 308.257627 
L 804.96 285.477966 
L 805.974545 280.238644 
L 806.989091 376.59661 
L 808.003636 376.59661 
L 809.018182 296.867797 
L 810.032727 251.308475 
L 811.047273 239.918644 
L 812.061818 257.00339 
L 813.076364 342.427119 
L 814.090909 365.20678 
L 815.105455 359.511864 
L 816.12 331.037288 
L 817.134545 319.647458 
L 818.149091 359.967458 
L 819.163636 370.901695 
L 820.178182 359.511864 
L 821.192727 312.813559 
L 822.207273 285.477966 
L 823.221818 300.284746 
L 824.236364 274.088136 
L 825.250909 274.088136 
L 826.265455 322.608814 
L 827.28 313.952542 
L 828.294545 312.813559 
L 829.309091 291.172881 
L 830.323636 296.867797 
L 831.338182 305.979661 
L 832.352727 274.088136 
L 833.367273 295.95661 
L 834.381818 410.766102 
L 835.396364 399.376271 
L 836.410909 336.048814 
L 837.425455 262.698305 
L 839.454545 262.698305 
L 840.469091 296.867797 
L 841.483636 347.894237 
L 842.498182 319.647458 
L 843.512727 325.114576 
L 844.527273 285.477966 
L 845.541818 274.088136 
L 846.556364 218.050169 
L 847.570909 182.969492 
L 848.585455 248.461017 
L 849.6 262.698305 
L 850.614545 262.698305 
L 851.629091 226.250847 
L 852.643636 194.359322 
L 853.658182 283.655593 
L 854.672727 410.766102 
L 855.687273 399.376271 
L 856.701818 276.821695 
L 857.716364 262.698305 
L 858.730909 279.555254 
L 859.745455 217.138983 
L 860.76 239.918644 
L 861.774545 305.979661 
L 862.789091 308.257627 
L 863.803636 326.481356 
L 864.818182 274.088136 
L 865.832727 285.477966 
L 866.847273 276.366102 
L 867.861818 262.698305 
L 868.876364 280.466441 
L 869.890909 365.20678 
L 870.905455 376.59661 
L 872.934545 308.257627 
L 873.949091 302.790508 
L 874.963636 228.528814 
L 875.978182 234.223729 
L 876.992727 335.137627 
L 878.007273 353.816949 
L 879.021818 345.616271 
L 880.036364 262.698305 
L 881.050909 262.698305 
L 882.065455 295.045424 
L 883.08 285.477966 
L 885.109091 262.698305 
L 886.123636 262.698305 
L 887.138182 296.867797 
L 889.167273 274.088136 
L 890.181818 285.477966 
L 891.196364 285.477966 
L 892.210909 289.578305 
L 893.225455 262.698305 
L 894.24 251.308475 
L 895.254545 296.867797 
L 896.269091 296.867797 
L 897.283636 283.2 
L 898.298182 239.918644 
L 899.312727 252.675254 
L 900.327273 353.816949 
L 901.341818 342.427119 
L 902.356364 315.547119 
L 903.370909 313.952542 
L 904.385455 311.902373 
L 905.4 274.088136 
L 906.414545 308.257627 
L 907.429091 366.573559 
L 908.443636 376.59661 
L 909.458182 353.361356 
L 910.472727 274.088136 
L 911.487273 285.477966 
L 912.501818 292.311864 
L 913.516364 268.39322 
L 914.530909 251.308475 
L 915.545455 343.793898 
L 916.56 331.037288 
L 917.574545 302.790508 
L 918.589091 148.8 
L 919.603636 160.189831 
L 920.618182 248.119322 
L 921.632727 239.918644 
L 922.647273 260.420339 
L 923.661818 319.647458 
L 924.676364 308.257627 
L 925.690909 310.08 
L 926.705455 296.867797 
L 927.72 303.018305 
L 928.734545 262.698305 
L 929.749091 268.39322 
L 930.763636 397.098305 
L 932.792727 378.874576 
L 933.807273 239.918644 
L 934.821818 251.308475 
L 935.836364 310.125559 
L 936.850909 308.257627 
L 937.865455 318.052881 
L 938.88 274.088136 
L 939.894545 274.088136 
L 940.909091 282.061017 
L 941.923636 262.698305 
L 942.938182 247.891525 
L 943.952727 262.698305 
L 944.967273 262.698305 
L 945.981818 327.392542 
L 946.996364 331.037288 
L 948.010909 341.288136 
L 949.025455 313.952542 
L 950.04 319.647458 
L 951.054545 302.790508 
L 952.069091 251.308475 
L 953.083636 272.265763 
L 954.098182 296.867797 
L 955.112727 308.257627 
L 956.127273 333.770847 
L 957.141818 336.732203 
L 958.156364 333.315254 
L 959.170909 319.647458 
L 960.185455 319.647458 
L 961.2 354.955932 
L 962.214545 342.427119 
L 963.229091 353.816949 
L 964.243636 296.867797 
L 966.272727 296.867797 
L 967.287273 274.088136 
L 968.301818 264.520678 
L 969.316364 296.867797 
L 970.330909 296.867797 
L 971.345455 310.535593 
L 972.36 296.867797 
L 973.374545 296.412203 
L 974.389091 228.528814 
L 975.403636 217.138983 
L 976.418182 340.604746 
L 977.432727 410.766102 
L 978.447273 410.766102 
L 979.461818 228.528814 
L 980.476364 239.918644 
L 981.490909 268.39322 
L 982.505455 251.308475 
L 983.52 251.308475 
L 984.534545 376.59661 
L 985.549091 365.20678 
L 986.563636 347.210847 
L 987.578182 285.477966 
L 990.621818 285.477966 
L 991.636364 333.770847 
L 992.650909 342.427119 
L 993.665455 354.955932 
L 994.68 319.647458 
L 995.694545 319.647458 
L 996.709091 376.59661 
L 997.723636 376.59661 
L 998.738182 369.762712 
L 999.752727 331.037288 
L 1000.767273 342.427119 
L 1001.781818 329.670508 
L 1002.796364 274.088136 
L 1003.810909 285.477966 
L 1004.825455 264.065085 
L 1005.84 274.088136 
L 1006.854545 336.96 
L 1007.869091 331.037288 
L 1008.883636 316.002712 
L 1009.898182 251.308475 
L 1010.912727 239.918644 
L 1011.927273 286.616949 
L 1012.941818 296.867797 
L 1013.956364 288.211525 
L 1014.970909 217.138983 
L 1015.985455 217.138983 
L 1017 303.701695 
L 1018.014545 308.257627 
L 1019.029091 302.562712 
L 1020.043636 278.188475 
L 1021.058182 257.00339 
L 1022.072727 282.744407 
L 1023.087273 319.647458 
L 1024.101818 331.037288 
L 1025.116364 277.277288 
L 1026.130909 274.088136 
L 1027.145455 317.369492 
L 1028.16 331.037288 
L 1029.174545 331.037288 
L 1030.189091 239.918644 
L 1031.203636 262.698305 
L 1032.218182 288.55322 
L 1033.232727 274.088136 
L 1034.247273 274.088136 
L 1035.261818 308.257627 
L 1036.276364 319.647458 
L 1037.290909 295.501017 
L 1038.305455 251.308475 
L 1039.32 249.941695 
L 1040.334545 319.647458 
L 1041.349091 308.257627 
L 1042.363636 319.875254 
L 1043.378182 308.257627 
L 1044.392727 318.508475 
L 1045.407273 353.816949 
L 1046.421818 353.816949 
L 1048.450909 274.088136 
L 1049.465455 268.165424 
L 1050.48 251.308475 
L 1051.494545 239.918644 
L 1052.509091 282.288814 
L 1054.538182 288.894915 
L 1055.552727 291.172881 
L 1056.567273 296.867797 
L 1057.581818 292.311864 
L 1058.596364 285.477966 
L 1059.610909 295.95661 
L 1060.625455 228.528814 
L 1061.64 228.528814 
L 1062.654545 256.32 
L 1063.669091 251.308475 
L 1064.683636 255.408814 
L 1065.698182 433.545763 
L 1066.712727 433.545763 
L 1068.741818 262.698305 
L 1069.756364 277.732881 
L 1070.770909 308.257627 
L 1071.785455 296.867797 
L 1072.8 349.261017 
L 1073.814545 331.037288 
L 1074.829091 342.427119 
L 1075.843636 319.647458 
L 1076.858182 308.257627 
L 1077.872727 283.655593 
L 1078.887273 228.528814 
L 1079.901818 239.918644 
L 1080.916364 313.269153 
L 1081.930909 296.867797 
L 1082.945455 326.481356 
L 1083.96 387.986441 
L 1084.974545 387.986441 
L 1085.989091 307.346441 
L 1087.003636 251.308475 
L 1088.018182 228.528814 
L 1089.032727 359.511864 
L 1090.047273 387.986441 
L 1091.061818 388.442034 
L 1092.076364 376.59661 
L 1093.090909 376.59661 
L 1094.105455 302.562712 
L 1095.12 319.647458 
L 1096.134545 315.547119 
L 1097.149091 262.698305 
L 1098.163636 277.732881 
L 1099.178182 387.986441 
L 1100.192727 376.59661 
L 1101.207273 313.724746 
L 1102.221818 262.698305 
L 1103.236364 271.582373 
L 1104.250909 285.477966 
L 1105.265455 285.477966 
L 1106.28 296.867797 
L 1107.294545 285.477966 
L 1108.309091 324.20339 
L 1109.323636 308.257627 
L 1110.338182 329.214915 
L 1111.352727 365.20678 
L 1112.367273 365.20678 
L 1113.381818 316.230508 
L 1114.396364 285.477966 
L 1115.410909 282.972203 
L 1116.425455 262.698305 
L 1117.44 251.308475 
L 1118.454545 341.288136 
L 1119.469091 353.816949 
L 1120.483636 340.149153 
L 1121.498182 239.918644 
L 1122.512727 251.308475 
L 1123.527273 294.362034 
L 1124.541818 285.477966 
L 1125.556364 303.701695 
L 1126.570909 410.766102 
L 1127.585455 399.376271 
L 1128.6 354.728136 
L 1129.614545 296.867797 
L 1130.629091 302.334915 
L 1131.643636 331.037288 
L 1132.658182 319.647458 
L 1133.672727 335.821017 
L 1134.687273 331.037288 
L 1135.701818 293.223051 
L 1136.716364 205.749153 
L 1137.730909 248.574915 
L 1138.745455 262.698305 
L 1139.76 262.698305 
L 1140.774545 298.00678 
L 1141.789091 285.477966 
L 1142.803636 276.366102 
L 1143.818182 182.969492 
L 1144.832727 182.969492 
L 1145.847273 206.888136 
L 1146.861818 205.749153 
L 1147.876364 250.169492 
L 1148.890909 331.037288 
L 1149.905455 331.037288 
L 1150.92 296.867797 
L 1151.934545 296.867797 
L 1152.949091 287.755932 
L 1153.963636 262.698305 
L 1155.992727 319.647458 
L 1157.007273 319.647458 
L 1158.021818 239.918644 
L 1159.036364 239.918644 
L 1160.050909 245.841356 
L 1161.065455 228.528814 
L 1162.08 263.609492 
L 1163.094545 353.816949 
L 1164.109091 342.427119 
L 1165.123636 272.949153 
L 1166.138182 251.308475 
L 1167.152727 279.783051 
L 1168.167273 274.088136 
L 1169.181818 285.477966 
L 1170.196364 274.088136 
L 1171.210909 274.088136 
L 1172.225455 314.522034 
L 1173.24 319.647458 
L 1174.254545 325.570169 
L 1175.269091 274.088136 
L 1176.283636 274.088136 
L 1177.298182 353.816949 
L 1178.312727 376.59661 
L 1179.327273 387.986441 
L 1180.341818 292.995254 
L 1181.356364 285.477966 
L 1182.370909 298.00678 
L 1183.385455 274.088136 
L 1184.4 274.088136 
L 1185.414545 340.149153 
L 1186.429091 342.427119 
L 1187.443636 348.122034 
L 1188.458182 262.698305 
L 1189.472727 274.088136 
L 1190.487273 274.088136 
L 1191.501818 239.918644 
L 1192.516364 239.918644 
L 1193.530909 240.602034 
L 1194.545455 239.918644 
L 1195.56 333.770847 
L 1196.574545 365.20678 
L 1197.589091 376.59661 
L 1198.603636 239.918644 
L 1199.618182 251.308475 
L 1200.632727 274.999322 
L 1201.647273 262.698305 
L 1202.661818 262.698305 
L 1203.676364 342.427119 
L 1204.690909 342.427119 
L 1205.705455 331.037288 
L 1206.72 308.257627 
L 1207.734545 308.257627 
L 1208.749091 268.39322 
L 1209.763636 262.698305 
L 1211.792727 273.632542 
L 1212.807273 194.359322 
L 1213.821818 205.749153 
L 1214.836364 244.24678 
L 1215.850909 251.308475 
L 1216.865455 239.918644 
L 1217.88 285.477966 
L 1218.894545 308.257627 
L 1219.909091 338.782373 
L 1220.923636 313.952542 
L 1221.938182 312.357966 
L 1222.952727 274.088136 
L 1223.967273 251.308475 
L 1224.981818 308.257627 
L 1225.996364 296.867797 
L 1227.010909 294.248136 
L 1228.025455 331.037288 
L 1229.04 319.647458 
L 1230.054545 293.223051 
L 1231.069091 285.477966 
L 1232.083636 300.512542 
L 1233.098182 365.20678 
L 1234.112727 365.20678 
L 1235.127273 296.867797 
L 1236.141818 296.867797 
L 1237.156364 333.543051 
L 1238.170909 331.037288 
L 1239.185455 342.427119 
L 1241.214545 342.427119 
L 1242.229091 323.064407 
L 1243.243636 262.698305 
L 1244.258182 251.308475 
L 1244.258182 251.308475 
" style="fill:none;stroke:#1f77b4;stroke-linecap:square;stroke-width:1.5;"/>
   </g>
   <g id="patch_3">
    <path d="M 180 854.4 
L 180 115.2 
" style="fill:none;stroke:#000000;stroke-linecap:square;stroke-linejoin:miter;stroke-width:0.8;"/>
   </g>
   <g id="patch_4">
    <path d="M 1296 854.4 
L 1296 115.2 
" style="fill:none;stroke:#000000;stroke-linecap:square;stroke-linejoin:miter;stroke-width:0.8;"/>
   </g>
   <g id="patch_5">
    <path d="M 180 854.4 
L 1296 854.4 
" style="fill:none;stroke:#000000;stroke-linecap:square;stroke-linejoin:miter;stroke-width:0.8;"/>
   </g>
   <g id="patch_6">
    <path d="M 180 115.2 
L 1296 115.2 
" style="fill:none;stroke:#000000;stroke-linecap:square;stroke-linejoin:miter;stroke-width:0.8;"/>
   </g>
   <g id="legend_1">
    <g id="patch_7">
     <path d="M 1022.3 166.482813 
L 1279.9 166.482813 
Q 1284.5 166.482813 1284.5 161.882812 
L 1284.5 131.3 
Q 1284.5 126.7 1279.9 126.7 
L 1022.3 126.7 
Q 1017.7 126.7 1017.7 131.3 
L 1017.7 161.882812 
Q 1017.7 166.482813 1022.3 166.482813 
z
" style="fill:#ffffff;opacity:0.8;stroke:#cccccc;stroke-linejoin:miter;"/>
    </g>
    <g id="line2d_15">
     <path d="M 1026.9 146.357812 
L 1072.9 146.357812 
" style="fill:none;stroke:#008000;stroke-dasharray:5.55,2.4;stroke-dashoffset:0;stroke-width:1.5;"/>
    </g>
    <g id="text_16">
     <!-- 最大适应度=590.0 -->
     <g transform="translate(1091.3 154.407812)scale(0.23 -0.23)">
      <defs>
       <path d="M 2975 2900 
L 125 2900 
L 125 3300 
L 2975 3300 
L 2975 2900 
z
M 2975 1375 
L 125 1375 
L 125 1775 
L 2975 1775 
L 2975 1375 
z
" id="SimHei-3d" transform="scale(0.015625)"/>
       <path d="M 550 1325 
Q 725 650 1150 575 
Q 1575 500 1837 662 
Q 2100 825 2212 1087 
Q 2325 1350 2312 1675 
Q 2300 2000 2137 2225 
Q 1975 2450 1725 2525 
Q 1475 2600 1162 2525 
Q 850 2450 650 2175 
L 225 2225 
Q 275 2375 700 4375 
L 2675 4375 
L 2675 3925 
L 1075 3925 
Q 950 3250 825 2850 
Q 1200 3025 1525 3012 
Q 1850 3000 2150 2862 
Q 2450 2725 2587 2487 
Q 2725 2250 2787 2012 
Q 2850 1775 2837 1500 
Q 2825 1225 2725 937 
Q 2625 650 2425 462 
Q 2225 275 1937 162 
Q 1650 50 1275 75 
Q 900 100 562 350 
Q 225 600 100 1200 
L 550 1325 
z
" id="SimHei-35" transform="scale(0.015625)"/>
       <path d="M 800 75 
Q 1350 1000 1700 1750 
Q 1075 1650 662 1912 
Q 250 2175 162 2625 
Q 75 3075 175 3437 
Q 275 3800 487 4037 
Q 700 4275 1000 4375 
Q 1300 4475 1537 4475 
Q 1775 4475 2025 4375 
Q 2275 4275 2475 4075 
Q 2675 3875 2750 3662 
Q 2825 3450 2825 3112 
Q 2825 2775 2575 2250 
Q 2325 1725 1350 75 
L 800 75 
z
M 662 2875 
Q 700 2550 937 2337 
Q 1175 2125 1450 2150 
Q 1725 2175 1887 2300 
Q 2050 2425 2200 2725 
Q 2300 3100 2250 3362 
Q 2200 3625 1987 3800 
Q 1775 3975 1525 3975 
Q 1375 4000 1137 3900 
Q 900 3800 762 3500 
Q 625 3200 662 2875 
z
" id="SimHei-39" transform="scale(0.015625)"/>
       <path d="M 225 2537 
Q 250 3200 412 3587 
Q 575 3975 875 4225 
Q 1175 4475 1612 4475 
Q 2050 4475 2375 4112 
Q 2700 3750 2800 3200 
Q 2900 2650 2862 1937 
Q 2825 1225 2612 775 
Q 2400 325 1975 150 
Q 1550 -25 1125 187 
Q 700 400 525 750 
Q 350 1100 275 1487 
Q 200 1875 225 2537 
z
M 750 2687 
Q 675 2000 800 1462 
Q 925 925 1212 700 
Q 1500 475 1800 612 
Q 2100 750 2237 1162 
Q 2375 1575 2375 2062 
Q 2375 2550 2337 2950 
Q 2300 3350 2112 3675 
Q 1925 4000 1612 4012 
Q 1300 4025 1062 3700 
Q 825 3375 750 2687 
z
" id="SimHei-30" transform="scale(0.015625)"/>
       <path d="M 1075 125 
L 500 125 
L 500 675 
L 1075 675 
L 1075 125 
z
" id="SimHei-2e" transform="scale(0.015625)"/>
      </defs>
      <use xlink:href="#SimHei-6700"/>
      <use x="100" xlink:href="#SimHei-5927"/>
      <use x="200" xlink:href="#SimHei-9002"/>
      <use x="300" xlink:href="#SimHei-5e94"/>
      <use x="400" xlink:href="#SimHei-5ea6"/>
      <use x="500" xlink:href="#SimHei-3d"/>
      <use x="550" xlink:href="#SimHei-35"/>
      <use x="600" xlink:href="#SimHei-39"/>
      <use x="650" xlink:href="#SimHei-30"/>
      <use x="700" xlink:href="#SimHei-2e"/>
      <use x="750" xlink:href="#SimHei-30"/>
     </g>
    </g>
   </g>
  </g>
 </g>
 <defs>
  <clipPath id="p32360f3fed">
   <rect height="739.2" width="1116" x="180" y="115.2"/>
  </clipPath>
 </defs>
</svg>
